<svg width="15" height="15" viewBox="0 0 15 15" fill="none" xmlns="http://www.w3.org/2000/svg">
<path d="M0.9375 8.57066H12.0563L8.65312 13.2417C8.57433 13.35 8.51498 13.475 8.47846 13.6095C8.44195 13.7441 8.42898 13.8855 8.44029 14.0258C8.46315 14.3091 8.58355 14.5704 8.775 14.7523C8.96645 14.9341 9.21328 15.0216 9.46118 14.9955C9.70908 14.9693 9.93775 14.8318 10.0969 14.613L14.7844 8.18498C14.8159 8.13385 14.8441 8.08014 14.8688 8.02428C14.8688 7.97072 14.9156 7.93858 14.9344 7.88501C14.9769 7.76217 14.9991 7.63141 15 7.49933C14.9991 7.36725 14.9769 7.23649 14.9344 7.11365C14.9344 7.06008 14.8875 7.02794 14.8688 6.97438C14.8441 6.91852 14.8159 6.86481 14.7844 6.81368L10.0969 0.385682C10.0087 0.264747 9.89835 0.167491 9.77358 0.100832C9.64882 0.0341724 9.51273 -0.000253554 9.375 2.04663e-06C9.15595 -0.000487031 8.94367 0.0866931 8.775 0.246409C8.68007 0.336346 8.6016 0.446801 8.54408 0.571447C8.48656 0.696094 8.45113 0.832483 8.43981 0.972803C8.42849 1.11312 8.4415 1.25462 8.47811 1.38918C8.51471 1.52374 8.57419 1.64873 8.65312 1.75699L12.0563 6.428H0.9375C0.68886 6.428 0.450403 6.54087 0.274588 6.74178C0.0987722 6.9427 0 7.21519 0 7.49933C0 7.78347 0.0987722 8.05596 0.274588 8.25688C0.450403 8.45779 0.68886 8.57066 0.9375 8.57066Z" fill="white"/>
</svg>