<svg width="95" height="24" viewBox="0 0 95 24" fill="none" xmlns="http://www.w3.org/2000/svg">
<path d="M2.38405 8.92002C2.4258 8.40047 2.85961 8.00012 3.38084 8.00012H17.2851C17.8064 8.00012 18.2402 8.40047 18.2819 8.92002L19.1594 19.8399C19.2529 21.0039 18.3336 22.0001 17.1658 22.0001H3.50013C2.3324 22.0001 1.41302 21.0039 1.50656 19.8399L2.38405 8.92002Z" stroke="black" stroke-width="2" stroke-linecap="round" stroke-linejoin="round"/>
<path d="M14.3335 11V6C14.3335 3.79086 12.5426 2 10.3335 2C8.12436 2 6.3335 3.79086 6.3335 6V11" stroke="black" stroke-width="2" stroke-linecap="round" stroke-linejoin="round"/>
<path d="M37.6139 10.32C37.4112 9.94667 37.1179 9.664 36.7339 9.472C36.3606 9.26933 35.9179 9.168 35.4059 9.168C34.5206 9.168 33.8112 9.46133 33.2779 10.048C32.7446 10.624 32.4779 11.3973 32.4779 12.368C32.4779 13.4027 32.7552 14.2133 33.3099 14.8C33.8752 15.376 34.6486 15.664 35.6299 15.664C36.3019 15.664 36.8672 15.4933 37.3259 15.152C37.7952 14.8107 38.1366 14.32 38.3499 13.68H34.8779V11.664H40.8299V14.208C40.6272 14.8907 40.2806 15.5253 39.7899 16.112C39.3099 16.6987 38.6966 17.1733 37.9499 17.536C37.2032 17.8987 36.3606 18.08 35.4219 18.08C34.3126 18.08 33.3206 17.84 32.4459 17.36C31.5819 16.8693 30.9046 16.192 30.4139 15.328C29.9339 14.464 29.6939 13.4773 29.6939 12.368C29.6939 11.2587 29.9339 10.272 30.4139 9.408C30.9046 8.53333 31.5819 7.856 32.4459 7.376C33.3099 6.88533 34.2966 6.64 35.4059 6.64C36.7499 6.64 37.8806 6.96533 38.7979 7.616C39.7259 8.26667 40.3392 9.168 40.6379 10.32H37.6139ZM46.4094 18.128C45.5347 18.128 44.7454 17.9413 44.0414 17.568C43.3481 17.1947 42.7987 16.6613 42.3934 15.968C41.9987 15.2747 41.8014 14.464 41.8014 13.536C41.8014 12.6187 42.0041 11.8133 42.4094 11.12C42.8147 10.416 43.3694 9.87733 44.0734 9.504C44.7774 9.13067 45.5667 8.944 46.4414 8.944C47.3161 8.944 48.1054 9.13067 48.8094 9.504C49.5134 9.87733 50.0681 10.416 50.4734 11.12C50.8787 11.8133 51.0814 12.6187 51.0814 13.536C51.0814 14.4533 50.8734 15.264 50.4574 15.968C50.0521 16.6613 49.4921 17.1947 48.7774 17.568C48.0734 17.9413 47.2841 18.128 46.4094 18.128ZM46.4094 15.76C46.9321 15.76 47.3747 15.568 47.7374 15.184C48.1107 14.8 48.2974 14.2507 48.2974 13.536C48.2974 12.8213 48.1161 12.272 47.7534 11.888C47.4014 11.504 46.9641 11.312 46.4414 11.312C45.9081 11.312 45.4654 11.504 45.1134 11.888C44.7614 12.2613 44.5854 12.8107 44.5854 13.536C44.5854 14.2507 44.7561 14.8 45.0974 15.184C45.4494 15.568 45.8867 15.76 46.4094 15.76ZM56.5969 18.112C55.7756 18.112 55.0396 17.9787 54.3889 17.712C53.7382 17.4453 53.2156 17.0507 52.8209 16.528C52.4369 16.0053 52.2342 15.376 52.2129 14.64H55.1249C55.1676 15.056 55.3116 15.376 55.5569 15.6C55.8022 15.8133 56.1222 15.92 56.5169 15.92C56.9222 15.92 57.2422 15.8293 57.4769 15.648C57.7116 15.456 57.8289 15.1947 57.8289 14.864C57.8289 14.5867 57.7329 14.3573 57.5409 14.176C57.3596 13.9947 57.1302 13.8453 56.8529 13.728C56.5862 13.6107 56.2022 13.4773 55.7009 13.328C54.9756 13.104 54.3836 12.88 53.9249 12.656C53.4662 12.432 53.0716 12.1013 52.7409 11.664C52.4102 11.2267 52.2449 10.656 52.2449 9.952C52.2449 8.90667 52.6236 8.09067 53.3809 7.504C54.1382 6.90667 55.1249 6.608 56.3409 6.608C57.5782 6.608 58.5756 6.90667 59.3329 7.504C60.0902 8.09067 60.4956 8.912 60.5489 9.968H57.5889C57.5676 9.60533 57.4342 9.32267 57.1889 9.12C56.9436 8.90667 56.6289 8.8 56.2449 8.8C55.9142 8.8 55.6476 8.89067 55.4449 9.072C55.2422 9.24267 55.1409 9.49333 55.1409 9.824C55.1409 10.1867 55.3116 10.4693 55.6529 10.672C55.9942 10.8747 56.5276 11.0933 57.2529 11.328C57.9782 11.5733 58.5649 11.808 59.0129 12.032C59.4716 12.256 59.8662 12.5813 60.1969 13.008C60.5276 13.4347 60.6929 13.984 60.6929 14.656C60.6929 15.296 60.5276 15.8773 60.1969 16.4C59.8769 16.9227 59.4076 17.3387 58.7889 17.648C58.1702 17.9573 57.4396 18.112 56.5969 18.112ZM67.8646 8.976C68.8886 8.976 69.71 9.31733 70.3286 10C70.9473 10.672 71.2566 11.6 71.2566 12.784V18H68.5366V13.152C68.5366 12.5547 68.382 12.0907 68.0726 11.76C67.7633 11.4293 67.3473 11.264 66.8246 11.264C66.302 11.264 65.886 11.4293 65.5766 11.76C65.2673 12.0907 65.1126 12.5547 65.1126 13.152V18H62.3766V6.16H65.1126V10.272C65.39 9.87733 65.7686 9.56267 66.2486 9.328C66.7286 9.09333 67.2673 8.976 67.8646 8.976ZM77.2219 18.128C76.3472 18.128 75.5579 17.9413 74.8539 17.568C74.1606 17.1947 73.6112 16.6613 73.2059 15.968C72.8112 15.2747 72.6139 14.464 72.6139 13.536C72.6139 12.6187 72.8166 11.8133 73.2219 11.12C73.6272 10.416 74.1819 9.87733 74.8859 9.504C75.5899 9.13067 76.3792 8.944 77.2539 8.944C78.1286 8.944 78.9179 9.13067 79.6219 9.504C80.3259 9.87733 80.8806 10.416 81.2859 11.12C81.6912 11.8133 81.8939 12.6187 81.8939 13.536C81.8939 14.4533 81.6859 15.264 81.2699 15.968C80.8646 16.6613 80.3046 17.1947 79.5899 17.568C78.8859 17.9413 78.0966 18.128 77.2219 18.128ZM77.2219 15.76C77.7446 15.76 78.1872 15.568 78.5499 15.184C78.9232 14.8 79.1099 14.2507 79.1099 13.536C79.1099 12.8213 78.9286 12.272 78.5659 11.888C78.2139 11.504 77.7766 11.312 77.2539 11.312C76.7206 11.312 76.2779 11.504 75.9259 11.888C75.5739 12.2613 75.3979 12.8107 75.3979 13.536C75.3979 14.2507 75.5686 14.8 75.9099 15.184C76.2619 15.568 76.6992 15.76 77.2219 15.76ZM86.0814 10.336C86.3481 9.92 86.7161 9.584 87.1854 9.328C87.6547 9.072 88.2041 8.944 88.8334 8.944C89.5694 8.944 90.2361 9.13067 90.8334 9.504C91.4307 9.87733 91.9001 10.4107 92.2414 11.104C92.5934 11.7973 92.7694 12.6027 92.7694 13.52C92.7694 14.4373 92.5934 15.248 92.2414 15.952C91.9001 16.6453 91.4307 17.184 90.8334 17.568C90.2361 17.9413 89.5694 18.128 88.8334 18.128C88.2147 18.128 87.6654 18 87.1854 17.744C86.7161 17.488 86.3481 17.1573 86.0814 16.752V22.256H83.3454V9.072H86.0814V10.336ZM89.9854 13.52C89.9854 12.8373 89.7934 12.304 89.4094 11.92C89.0361 11.5253 88.5721 11.328 88.0174 11.328C87.4734 11.328 87.0094 11.5253 86.6254 11.92C86.2521 12.3147 86.0654 12.8533 86.0654 13.536C86.0654 14.2187 86.2521 14.7573 86.6254 15.152C87.0094 15.5467 87.4734 15.744 88.0174 15.744C88.5614 15.744 89.0254 15.5467 89.4094 15.152C89.7934 14.7467 89.9854 14.2027 89.9854 13.52Z" fill="black"/>
</svg>
