<svg width="400" height="174" viewBox="0 0 400 174" fill="none" xmlns="http://www.w3.org/2000/svg">
<g filter="url(#filter0_b_236_591)">
<rect x="0.5" y="0.5" width="399" height="173" rx="9.5" stroke="#D9D9D9"/>
</g>
<line y1="86.5" x2="400" y2="86.5" stroke="#D9D9D9"/>
<path d="M90.248 35.288C90.248 35.8853 90.104 36.4453 89.816 36.968C89.5387 37.4907 89.096 37.912 88.488 38.232C87.8907 38.552 87.1333 38.712 86.216 38.712H84.344V43H82.104V31.832H86.216C87.08 31.832 87.816 31.9813 88.424 32.28C89.032 32.5787 89.4853 32.9893 89.784 33.512C90.0933 34.0347 90.248 34.6267 90.248 35.288ZM86.12 36.904C86.7387 36.904 87.1973 36.7653 87.496 36.488C87.7947 36.2 87.944 35.8 87.944 35.288C87.944 34.2 87.336 33.656 86.12 33.656H84.344V36.904H86.12ZM94.0784 35.512C94.3664 35.0427 94.7397 34.6747 95.1984 34.408C95.6677 34.1413 96.201 34.008 96.7984 34.008V36.36H96.2064C95.5024 36.36 94.969 36.5253 94.6064 36.856C94.2544 37.1867 94.0784 37.7627 94.0784 38.584V43H91.8384V34.136H94.0784V35.512ZM102.243 43.144C101.39 43.144 100.622 42.9573 99.9391 42.584C99.2565 42.2 98.7178 41.6613 98.3231 40.968C97.9391 40.2747 97.7471 39.4747 97.7471 38.568C97.7471 37.6613 97.9445 36.8613 98.3391 36.168C98.7445 35.4747 99.2938 34.9413 99.9871 34.568C100.68 34.184 101.454 33.992 102.307 33.992C103.16 33.992 103.934 34.184 104.627 34.568C105.32 34.9413 105.864 35.4747 106.259 36.168C106.664 36.8613 106.867 37.6613 106.867 38.568C106.867 39.4747 106.659 40.2747 106.243 40.968C105.838 41.6613 105.283 42.2 104.579 42.584C103.886 42.9573 103.107 43.144 102.243 43.144ZM102.243 41.192C102.648 41.192 103.027 41.096 103.379 40.904C103.742 40.7013 104.03 40.4027 104.243 40.008C104.456 39.6133 104.563 39.1333 104.563 38.568C104.563 37.7253 104.339 37.08 103.891 36.632C103.454 36.1733 102.915 35.944 102.275 35.944C101.635 35.944 101.096 36.1733 100.659 36.632C100.232 37.08 100.019 37.7253 100.019 38.568C100.019 39.4107 100.227 40.0613 100.643 40.52C101.07 40.968 101.603 41.192 102.243 41.192ZM119.518 34.008C120.606 34.008 121.481 34.344 122.142 35.016C122.814 35.6773 123.15 36.6053 123.15 37.8V43H120.91V38.104C120.91 37.4107 120.734 36.8827 120.382 36.52C120.03 36.1467 119.55 35.96 118.942 35.96C118.334 35.96 117.849 36.1467 117.486 36.52C117.134 36.8827 116.958 37.4107 116.958 38.104V43H114.718V38.104C114.718 37.4107 114.542 36.8827 114.19 36.52C113.838 36.1467 113.358 35.96 112.75 35.96C112.132 35.96 111.641 36.1467 111.278 36.52C110.926 36.8827 110.75 37.4107 110.75 38.104V43H108.51V34.136H110.75V35.208C111.038 34.8347 111.406 34.5413 111.854 34.328C112.313 34.1147 112.814 34.008 113.358 34.008C114.052 34.008 114.67 34.1573 115.214 34.456C115.758 34.744 116.18 35.16 116.478 35.704C116.766 35.192 117.182 34.7813 117.726 34.472C118.281 34.1627 118.878 34.008 119.518 34.008ZM129.212 43.144C128.359 43.144 127.591 42.9573 126.908 42.584C126.225 42.2 125.687 41.6613 125.292 40.968C124.908 40.2747 124.716 39.4747 124.716 38.568C124.716 37.6613 124.913 36.8613 125.308 36.168C125.713 35.4747 126.263 34.9413 126.956 34.568C127.649 34.184 128.423 33.992 129.276 33.992C130.129 33.992 130.903 34.184 131.596 34.568C132.289 34.9413 132.833 35.4747 133.228 36.168C133.633 36.8613 133.836 37.6613 133.836 38.568C133.836 39.4747 133.628 40.2747 133.212 40.968C132.807 41.6613 132.252 42.2 131.548 42.584C130.855 42.9573 130.076 43.144 129.212 43.144ZM129.212 41.192C129.617 41.192 129.996 41.096 130.348 40.904C130.711 40.7013 130.999 40.4027 131.212 40.008C131.425 39.6133 131.532 39.1333 131.532 38.568C131.532 37.7253 131.308 37.08 130.86 36.632C130.423 36.1733 129.884 35.944 129.244 35.944C128.604 35.944 128.065 36.1733 127.628 36.632C127.201 37.08 126.988 37.7253 126.988 38.568C126.988 39.4107 127.196 40.0613 127.612 40.52C128.039 40.968 128.572 41.192 129.212 41.192ZM151.468 31.832V43H149.228V35.736L146.236 43H144.54L141.532 35.736V43H139.292V31.832H141.836L145.388 40.136L148.94 31.832H151.468ZM161.922 38.376C161.922 38.696 161.901 38.984 161.858 39.24H155.378C155.431 39.88 155.655 40.3813 156.05 40.744C156.445 41.1067 156.93 41.288 157.506 41.288C158.338 41.288 158.93 40.9307 159.282 40.216H161.698C161.442 41.0693 160.951 41.7733 160.226 42.328C159.501 42.872 158.61 43.144 157.554 43.144C156.701 43.144 155.933 42.9573 155.25 42.584C154.578 42.2 154.05 41.6613 153.666 40.968C153.293 40.2747 153.106 39.4747 153.106 38.568C153.106 37.6507 153.293 36.8453 153.666 36.152C154.039 35.4587 154.562 34.9253 155.234 34.552C155.906 34.1787 156.679 33.992 157.554 33.992C158.397 33.992 159.149 34.1733 159.81 34.536C160.482 34.8987 160.999 35.416 161.362 36.088C161.735 36.7493 161.922 37.512 161.922 38.376ZM159.602 37.736C159.591 37.16 159.383 36.7013 158.978 36.36C158.573 36.008 158.077 35.832 157.49 35.832C156.935 35.832 156.466 36.0027 156.082 36.344C155.709 36.6747 155.479 37.1387 155.394 37.736H159.602ZM174.565 34.008C175.653 34.008 176.528 34.344 177.189 35.016C177.861 35.6773 178.197 36.6053 178.197 37.8V43H175.957V38.104C175.957 37.4107 175.781 36.8827 175.429 36.52C175.077 36.1467 174.597 35.96 173.989 35.96C173.381 35.96 172.896 36.1467 172.533 36.52C172.181 36.8827 172.005 37.4107 172.005 38.104V43H169.765V38.104C169.765 37.4107 169.589 36.8827 169.237 36.52C168.885 36.1467 168.405 35.96 167.797 35.96C167.178 35.96 166.688 36.1467 166.325 36.52C165.973 36.8827 165.797 37.4107 165.797 38.104V43H163.557V34.136H165.797V35.208C166.085 34.8347 166.453 34.5413 166.901 34.328C167.36 34.1147 167.861 34.008 168.405 34.008C169.098 34.008 169.717 34.1573 170.261 34.456C170.805 34.744 171.226 35.16 171.525 35.704C171.813 35.192 172.229 34.7813 172.773 34.472C173.328 34.1627 173.925 34.008 174.565 34.008ZM181.459 33.08C181.064 33.08 180.733 32.9573 180.467 32.712C180.211 32.456 180.083 32.1413 180.083 31.768C180.083 31.3947 180.211 31.0853 180.467 30.84C180.733 30.584 181.064 30.456 181.459 30.456C181.853 30.456 182.179 30.584 182.435 30.84C182.701 31.0853 182.835 31.3947 182.835 31.768C182.835 32.1413 182.701 32.456 182.435 32.712C182.179 32.9573 181.853 33.08 181.459 33.08ZM182.563 34.136V43H180.323V34.136H182.563ZM187.016 31.16V43H184.776V31.16H187.016ZM190.365 33.08C189.97 33.08 189.64 32.9573 189.373 32.712C189.117 32.456 188.989 32.1413 188.989 31.768C188.989 31.3947 189.117 31.0853 189.373 30.84C189.64 30.584 189.97 30.456 190.365 30.456C190.76 30.456 191.085 30.584 191.341 30.84C191.608 31.0853 191.741 31.3947 191.741 31.768C191.741 32.1413 191.608 32.456 191.341 32.712C191.085 32.9573 190.76 33.08 190.365 33.08ZM191.469 34.136V43H189.229V34.136H191.469ZM198.93 43L195.922 39.224V43H193.682V31.16H195.922V37.896L198.898 34.136H201.81L197.906 38.584L201.842 43H198.93ZM204.162 33.08C203.767 33.08 203.437 32.9573 203.17 32.712C202.914 32.456 202.786 32.1413 202.786 31.768C202.786 31.3947 202.914 31.0853 203.17 30.84C203.437 30.584 203.767 30.456 204.162 30.456C204.557 30.456 204.882 30.584 205.138 30.84C205.405 31.0853 205.538 31.3947 205.538 31.768C205.538 32.1413 205.405 32.456 205.138 32.712C204.882 32.9573 204.557 33.08 204.162 33.08ZM205.266 34.136V43H203.026V34.136H205.266ZM219.068 35.192C218.812 34.7227 218.46 34.3653 218.012 34.12C217.564 33.8747 217.041 33.752 216.444 33.752C215.782 33.752 215.196 33.9013 214.684 34.2C214.172 34.4987 213.772 34.9253 213.484 35.48C213.196 36.0347 213.052 36.6747 213.052 37.4C213.052 38.1467 213.196 38.7973 213.484 39.352C213.782 39.9067 214.193 40.3333 214.716 40.632C215.238 40.9307 215.846 41.08 216.54 41.08C217.393 41.08 218.092 40.856 218.635 40.408C219.18 39.9493 219.537 39.3147 219.708 38.504H215.868V36.792H221.916V38.744C221.766 39.5227 221.446 40.2427 220.956 40.904C220.465 41.5653 219.83 42.0987 219.052 42.504C218.284 42.8987 217.42 43.096 216.46 43.096C215.382 43.096 214.406 42.856 213.532 42.376C212.668 41.8853 211.985 41.208 211.484 40.344C210.993 39.48 210.748 38.4987 210.748 37.4C210.748 36.3013 210.993 35.32 211.484 34.456C211.985 33.5813 212.668 32.904 213.532 32.424C214.406 31.9333 215.377 31.688 216.444 31.688C217.702 31.688 218.796 31.9973 219.724 32.616C220.652 33.224 221.292 34.0827 221.644 35.192H219.068ZM225.813 35.512C226.101 35.0427 226.474 34.6747 226.933 34.408C227.402 34.1413 227.935 34.008 228.533 34.008V36.36H227.941C227.237 36.36 226.703 36.5253 226.341 36.856C225.989 37.1867 225.813 37.7627 225.813 38.584V43H223.573V34.136H225.813V35.512ZM229.465 38.536C229.465 37.64 229.641 36.8453 229.993 36.152C230.356 35.4587 230.842 34.9253 231.45 34.552C232.068 34.1787 232.756 33.992 233.514 33.992C234.175 33.992 234.751 34.1253 235.242 34.392C235.743 34.6587 236.143 34.9947 236.442 35.4V34.136H238.698V43H236.442V41.704C236.154 42.12 235.754 42.4667 235.242 42.744C234.74 43.0107 234.159 43.144 233.498 43.144C232.751 43.144 232.068 42.952 231.45 42.568C230.842 42.184 230.356 41.6453 229.993 40.952C229.641 40.248 229.465 39.4427 229.465 38.536ZM236.442 38.568C236.442 38.024 236.335 37.56 236.122 37.176C235.908 36.7813 235.62 36.4827 235.258 36.28C234.895 36.0667 234.506 35.96 234.09 35.96C233.674 35.96 233.29 36.0613 232.938 36.264C232.586 36.4667 232.298 36.7653 232.074 37.16C231.86 37.544 231.754 38.0027 231.754 38.536C231.754 39.0693 231.86 39.5387 232.074 39.944C232.298 40.3387 232.586 40.6427 232.938 40.856C233.3 41.0693 233.684 41.176 234.09 41.176C234.506 41.176 234.895 41.0747 235.258 40.872C235.62 40.6587 235.908 40.36 236.122 39.976C236.335 39.5813 236.442 39.112 236.442 38.568ZM243.493 35.976V40.264C243.493 40.5627 243.563 40.7813 243.701 40.92C243.851 41.048 244.096 41.112 244.437 41.112H245.477V43H244.069C242.181 43 241.237 42.0827 241.237 40.248V35.976H240.181V34.136H241.237V31.944H243.493V34.136H245.477V35.976H243.493ZM248.224 33.08C247.83 33.08 247.499 32.9573 247.232 32.712C246.976 32.456 246.848 32.1413 246.848 31.768C246.848 31.3947 246.976 31.0853 247.232 30.84C247.499 30.584 247.83 30.456 248.224 30.456C248.619 30.456 248.944 30.584 249.2 30.84C249.467 31.0853 249.6 31.3947 249.6 31.768C249.6 32.1413 249.467 32.456 249.2 32.712C248.944 32.9573 248.619 33.08 248.224 33.08ZM249.328 34.136V43H247.088V34.136H249.328ZM254.934 43.144C254.208 43.144 253.558 43.016 252.982 42.76C252.406 42.4933 251.947 42.136 251.606 41.688C251.275 41.24 251.094 40.744 251.062 40.2H253.318C253.36 40.5413 253.526 40.824 253.814 41.048C254.112 41.272 254.48 41.384 254.918 41.384C255.344 41.384 255.675 41.2987 255.91 41.128C256.155 40.9573 256.278 40.7387 256.278 40.472C256.278 40.184 256.128 39.9707 255.83 39.832C255.542 39.6827 255.078 39.5227 254.438 39.352C253.776 39.192 253.232 39.0267 252.806 38.856C252.39 38.6853 252.027 38.424 251.718 38.072C251.419 37.72 251.27 37.2453 251.27 36.648C251.27 36.1573 251.408 35.7093 251.686 35.304C251.974 34.8987 252.379 34.5787 252.902 34.344C253.435 34.1093 254.059 33.992 254.774 33.992C255.83 33.992 256.672 34.2587 257.302 34.792C257.931 35.3147 258.278 36.024 258.342 36.92H256.198C256.166 36.568 256.016 36.2907 255.75 36.088C255.494 35.8747 255.147 35.768 254.71 35.768C254.304 35.768 253.99 35.8427 253.766 35.992C253.552 36.1413 253.446 36.3493 253.446 36.616C253.446 36.9147 253.595 37.144 253.894 37.304C254.192 37.4533 254.656 37.608 255.286 37.768C255.926 37.928 256.454 38.0933 256.87 38.264C257.286 38.4347 257.643 38.7013 257.942 39.064C258.251 39.416 258.411 39.8853 258.422 40.472C258.422 40.984 258.278 41.4427 257.99 41.848C257.712 42.2533 257.307 42.5733 256.774 42.808C256.251 43.032 255.638 43.144 254.934 43.144ZM269.257 43.112C268.211 43.112 267.251 42.8667 266.377 42.376C265.502 41.8853 264.809 41.208 264.297 40.344C263.785 39.4693 263.529 38.4827 263.529 37.384C263.529 36.296 263.785 35.32 264.297 34.456C264.809 33.5813 265.502 32.8987 266.377 32.408C267.251 31.9173 268.211 31.672 269.257 31.672C270.313 31.672 271.273 31.9173 272.137 32.408C273.011 32.8987 273.699 33.5813 274.201 34.456C274.713 35.32 274.969 36.296 274.969 37.384C274.969 38.4827 274.713 39.4693 274.201 40.344C273.699 41.208 273.011 41.8853 272.137 42.376C271.262 42.8667 270.302 43.112 269.257 43.112ZM269.257 41.112C269.929 41.112 270.521 40.9627 271.033 40.664C271.545 40.3547 271.945 39.9173 272.233 39.352C272.521 38.7867 272.665 38.1307 272.665 37.384C272.665 36.6373 272.521 35.9867 272.233 35.432C271.945 34.8667 271.545 34.4347 271.033 34.136C270.521 33.8373 269.929 33.688 269.257 33.688C268.585 33.688 267.987 33.8373 267.465 34.136C266.953 34.4347 266.553 34.8667 266.265 35.432C265.977 35.9867 265.833 36.6373 265.833 37.384C265.833 38.1307 265.977 38.7867 266.265 39.352C266.553 39.9173 266.953 40.3547 267.465 40.664C267.987 40.9627 268.585 41.112 269.257 41.112ZM281.547 34.008C282.603 34.008 283.457 34.344 284.107 35.016C284.758 35.6773 285.083 36.6053 285.083 37.8V43H282.843V38.104C282.843 37.4 282.667 36.8613 282.315 36.488C281.963 36.104 281.483 35.912 280.875 35.912C280.257 35.912 279.766 36.104 279.403 36.488C279.051 36.8613 278.875 37.4 278.875 38.104V43H276.635V34.136H278.875V35.24C279.174 34.856 279.553 34.5573 280.011 34.344C280.481 34.12 280.993 34.008 281.547 34.008ZM290.685 33.992C291.347 33.992 291.928 34.1253 292.429 34.392C292.931 34.648 293.325 34.984 293.613 35.4V34.136H295.869V43.064C295.869 43.8853 295.704 44.616 295.373 45.256C295.043 45.9067 294.547 46.4187 293.885 46.792C293.224 47.176 292.424 47.368 291.485 47.368C290.227 47.368 289.192 47.0747 288.381 46.488C287.581 45.9013 287.128 45.1013 287.021 44.088H289.245C289.363 44.4933 289.613 44.8133 289.997 45.048C290.392 45.2933 290.867 45.416 291.421 45.416C292.072 45.416 292.6 45.2187 293.005 44.824C293.411 44.44 293.613 43.8533 293.613 43.064V41.688C293.325 42.104 292.925 42.4507 292.413 42.728C291.912 43.0053 291.336 43.144 290.685 43.144C289.939 43.144 289.256 42.952 288.637 42.568C288.019 42.184 287.528 41.6453 287.165 40.952C286.813 40.248 286.637 39.4427 286.637 38.536C286.637 37.64 286.813 36.8453 287.165 36.152C287.528 35.4587 288.013 34.9253 288.621 34.552C289.24 34.1787 289.928 33.992 290.685 33.992ZM293.613 38.568C293.613 38.024 293.507 37.56 293.293 37.176C293.08 36.7813 292.792 36.4827 292.429 36.28C292.067 36.0667 291.677 35.96 291.261 35.96C290.845 35.96 290.461 36.0613 290.109 36.264C289.757 36.4667 289.469 36.7653 289.245 37.16C289.032 37.544 288.925 38.0027 288.925 38.536C288.925 39.0693 289.032 39.5387 289.245 39.944C289.469 40.3387 289.757 40.6427 290.109 40.856C290.472 41.0693 290.856 41.176 291.261 41.176C291.677 41.176 292.067 41.0747 292.429 40.872C292.792 40.6587 293.08 40.36 293.293 39.976C293.507 39.5813 293.613 39.112 293.613 38.568ZM303.305 43L300.297 39.224V43H298.057V31.16H300.297V37.896L303.273 34.136H306.185L302.281 38.584L306.217 43H303.305ZM308.537 33.08C308.142 33.08 307.812 32.9573 307.545 32.712C307.289 32.456 307.161 32.1413 307.161 31.768C307.161 31.3947 307.289 31.0853 307.545 30.84C307.812 30.584 308.142 30.456 308.537 30.456C308.932 30.456 309.257 30.584 309.513 30.84C309.78 31.0853 309.913 31.3947 309.913 31.768C309.913 32.1413 309.78 32.456 309.513 32.712C309.257 32.9573 308.932 33.08 308.537 33.08ZM309.641 34.136V43H307.401V34.136H309.641ZM314.094 35.512C314.382 35.0427 314.755 34.6747 315.214 34.408C315.683 34.1413 316.217 34.008 316.814 34.008V36.36H316.222C315.518 36.36 314.985 36.5253 314.622 36.856C314.27 37.1867 314.094 37.7627 314.094 38.584V43H311.854V34.136H314.094V35.512Z" fill="black"/>
<path d="M84.64 56.88L82.344 54.336V56.88H81.616V51.304H82.344V53.888L84.648 51.304H85.568L83.04 54.096L85.592 56.88H84.64ZM90.2931 52.496V56.88H89.5651V56.232C89.4264 56.456 89.2317 56.632 88.9811 56.76C88.7357 56.8827 88.4637 56.944 88.1651 56.944C87.8237 56.944 87.5171 56.8747 87.2451 56.736C86.9731 56.592 86.7571 56.3787 86.5971 56.096C86.4424 55.8133 86.3651 55.4693 86.3651 55.064V52.496H87.0851V54.968C87.0851 55.4 87.1944 55.7333 87.4131 55.968C87.6317 56.1973 87.9304 56.312 88.3091 56.312C88.6984 56.312 89.0051 56.192 89.2291 55.952C89.4531 55.712 89.5651 55.3627 89.5651 54.904V52.496H90.2931ZM93.6583 52.416C94.1916 52.416 94.6236 52.5787 94.9543 52.904C95.2849 53.224 95.4503 53.688 95.4503 54.296V56.88H94.7303V54.4C94.7303 53.9627 94.6209 53.6293 94.4023 53.4C94.1836 53.1653 93.8849 53.048 93.5063 53.048C93.1223 53.048 92.8156 53.168 92.5863 53.408C92.3623 53.648 92.2503 53.9973 92.2503 54.456V56.88H91.5223V52.496H92.2503V53.12C92.3943 52.896 92.5889 52.7227 92.8343 52.6C93.0849 52.4773 93.3596 52.416 93.6583 52.416ZM97.0314 51.784C96.8928 51.784 96.7754 51.736 96.6794 51.64C96.5888 51.544 96.5434 51.4267 96.5434 51.288C96.5434 51.1493 96.5888 51.032 96.6794 50.936C96.7754 50.84 96.8928 50.792 97.0314 50.792C97.1701 50.792 97.2848 50.84 97.3754 50.936C97.4714 51.032 97.5194 51.1493 97.5194 51.288C97.5194 51.4267 97.4714 51.544 97.3754 51.64C97.2848 51.736 97.1701 51.784 97.0314 51.784ZM97.3914 57.832C97.3914 58.2213 97.2928 58.5067 97.0954 58.688C96.8981 58.8693 96.6101 58.96 96.2314 58.96H95.8074V58.344H96.1114C96.3141 58.344 96.4554 58.304 96.5354 58.224C96.6208 58.144 96.6634 58.008 96.6634 57.816V52.496H97.3914V57.832ZM102.512 52.496V56.88H101.784V56.232C101.645 56.456 101.45 56.632 101.2 56.76C100.954 56.8827 100.682 56.944 100.384 56.944C100.042 56.944 99.7358 56.8747 99.4638 56.736C99.1918 56.592 98.9758 56.3787 98.8158 56.096C98.6611 55.8133 98.5838 55.4693 98.5838 55.064V52.496H99.3038V54.968C99.3038 55.4 99.4131 55.7333 99.6318 55.968C99.8505 56.1973 100.149 56.312 100.528 56.312C100.917 56.312 101.224 56.192 101.448 55.952C101.672 55.712 101.784 55.3627 101.784 54.904V52.496H102.512ZM105.877 52.416C106.41 52.416 106.842 52.5787 107.173 52.904C107.504 53.224 107.669 53.688 107.669 54.296V56.88H106.949V54.4C106.949 53.9627 106.84 53.6293 106.621 53.4C106.402 53.1653 106.104 53.048 105.725 53.048C105.341 53.048 105.034 53.168 104.805 53.408C104.581 53.648 104.469 53.9973 104.469 54.456V56.88H103.741V52.496H104.469V53.12C104.613 52.896 104.808 52.7227 105.053 52.6C105.304 52.4773 105.578 52.416 105.877 52.416ZM110.666 52.424C111.045 52.424 111.376 52.5067 111.658 52.672C111.946 52.8373 112.16 53.0453 112.298 53.296V52.496H113.034V56.976C113.034 57.376 112.949 57.7307 112.778 58.04C112.608 58.3547 112.362 58.6 112.042 58.776C111.728 58.952 111.36 59.04 110.938 59.04C110.362 59.04 109.882 58.904 109.498 58.632C109.114 58.36 108.888 57.9893 108.818 57.52H109.538C109.618 57.7867 109.784 58 110.034 58.16C110.285 58.3253 110.586 58.408 110.938 58.408C111.338 58.408 111.664 58.2827 111.914 58.032C112.17 57.7813 112.298 57.4293 112.298 56.976V56.056C112.154 56.312 111.941 56.5253 111.658 56.696C111.376 56.8667 111.045 56.952 110.666 56.952C110.277 56.952 109.922 56.856 109.602 56.664C109.288 56.472 109.04 56.2027 108.858 55.856C108.677 55.5093 108.586 55.1147 108.586 54.672C108.586 54.224 108.677 53.832 108.858 53.496C109.04 53.1547 109.288 52.8907 109.602 52.704C109.922 52.5173 110.277 52.424 110.666 52.424ZM112.298 54.68C112.298 54.3493 112.232 54.0613 112.098 53.816C111.965 53.5707 111.784 53.384 111.554 53.256C111.33 53.1227 111.082 53.056 110.81 53.056C110.538 53.056 110.29 53.12 110.066 53.248C109.842 53.376 109.664 53.5627 109.53 53.808C109.397 54.0533 109.33 54.3413 109.33 54.672C109.33 55.008 109.397 55.3013 109.53 55.552C109.664 55.7973 109.842 55.9867 110.066 56.12C110.29 56.248 110.538 56.312 110.81 56.312C111.082 56.312 111.33 56.248 111.554 56.12C111.784 55.9867 111.965 55.7973 112.098 55.552C112.232 55.3013 112.298 55.0107 112.298 54.68ZM114.64 51.784C114.502 51.784 114.384 51.736 114.288 51.64C114.192 51.544 114.144 51.4267 114.144 51.288C114.144 51.1493 114.192 51.032 114.288 50.936C114.384 50.84 114.502 50.792 114.64 50.792C114.774 50.792 114.886 50.84 114.976 50.936C115.072 51.032 115.12 51.1493 115.12 51.288C115.12 51.4267 115.072 51.544 114.976 51.64C114.886 51.736 114.774 51.784 114.64 51.784ZM114.992 52.496V56.88H114.264V52.496H114.992ZM122.094 52.936C122.094 53.4 121.934 53.7867 121.614 54.096C121.299 54.4 120.817 54.552 120.166 54.552H119.094V56.88H118.366V51.304H120.166C120.795 51.304 121.273 51.456 121.598 51.76C121.929 52.064 122.094 52.456 122.094 52.936ZM120.166 53.952C120.571 53.952 120.87 53.864 121.062 53.688C121.254 53.512 121.35 53.2613 121.35 52.936C121.35 52.248 120.955 51.904 120.166 51.904H119.094V53.952H120.166ZM123.727 53.208C123.855 52.9573 124.036 52.7627 124.271 52.624C124.511 52.4853 124.801 52.416 125.143 52.416V53.168H124.951C124.135 53.168 123.727 53.6107 123.727 54.496V56.88H122.999V52.496H123.727V53.208ZM127.895 56.952C127.485 56.952 127.111 56.8587 126.775 56.672C126.445 56.4853 126.183 56.2213 125.991 55.88C125.805 55.5333 125.711 55.1333 125.711 54.68C125.711 54.232 125.807 53.8373 125.999 53.496C126.197 53.1493 126.463 52.8853 126.799 52.704C127.135 52.5173 127.511 52.424 127.927 52.424C128.343 52.424 128.719 52.5173 129.055 52.704C129.391 52.8853 129.655 53.1467 129.847 53.488C130.045 53.8293 130.143 54.2267 130.143 54.68C130.143 55.1333 130.042 55.5333 129.839 55.88C129.642 56.2213 129.373 56.4853 129.031 56.672C128.69 56.8587 128.311 56.952 127.895 56.952ZM127.895 56.312C128.157 56.312 128.402 56.2507 128.631 56.128C128.861 56.0053 129.045 55.8213 129.183 55.576C129.327 55.3307 129.399 55.032 129.399 54.68C129.399 54.328 129.33 54.0293 129.191 53.784C129.053 53.5387 128.871 53.3573 128.647 53.24C128.423 53.1173 128.181 53.056 127.919 53.056C127.653 53.056 127.407 53.1173 127.183 53.24C126.965 53.3573 126.789 53.5387 126.655 53.784C126.522 54.0293 126.455 54.328 126.455 54.68C126.455 55.0373 126.519 55.3387 126.647 55.584C126.781 55.8293 126.957 56.0133 127.175 56.136C127.394 56.2533 127.634 56.312 127.895 56.312ZM130.828 54.672C130.828 54.224 130.919 53.832 131.1 53.496C131.282 53.1547 131.53 52.8907 131.844 52.704C132.164 52.5173 132.522 52.424 132.916 52.424C133.258 52.424 133.575 52.504 133.868 52.664C134.162 52.8187 134.386 53.024 134.54 53.28V50.96H135.276V56.88H134.54V56.056C134.396 56.3173 134.183 56.5333 133.9 56.704C133.618 56.8693 133.287 56.952 132.908 56.952C132.519 56.952 132.164 56.856 131.844 56.664C131.53 56.472 131.282 56.2027 131.1 55.856C130.919 55.5093 130.828 55.1147 130.828 54.672ZM134.54 54.68C134.54 54.3493 134.474 54.0613 134.34 53.816C134.207 53.5707 134.026 53.384 133.796 53.256C133.572 53.1227 133.324 53.056 133.052 53.056C132.78 53.056 132.532 53.12 132.308 53.248C132.084 53.376 131.906 53.5627 131.772 53.808C131.639 54.0533 131.572 54.3413 131.572 54.672C131.572 55.008 131.639 55.3013 131.772 55.552C131.906 55.7973 132.084 55.9867 132.308 56.12C132.532 56.248 132.78 56.312 133.052 56.312C133.324 56.312 133.572 56.248 133.796 56.12C134.026 55.9867 134.207 55.7973 134.34 55.552C134.474 55.3013 134.54 55.0107 134.54 54.68ZM140.395 52.496V56.88H139.667V56.232C139.528 56.456 139.333 56.632 139.083 56.76C138.837 56.8827 138.565 56.944 138.267 56.944C137.925 56.944 137.619 56.8747 137.347 56.736C137.075 56.592 136.859 56.3787 136.699 56.096C136.544 55.8133 136.467 55.4693 136.467 55.064V52.496H137.187V54.968C137.187 55.4 137.296 55.7333 137.515 55.968C137.733 56.1973 138.032 56.312 138.411 56.312C138.8 56.312 139.107 56.192 139.331 55.952C139.555 55.712 139.667 55.3627 139.667 54.904V52.496H140.395ZM141.352 54.68C141.352 54.2267 141.442 53.832 141.624 53.496C141.805 53.1547 142.056 52.8907 142.376 52.704C142.701 52.5173 143.072 52.424 143.488 52.424C144.026 52.424 144.469 52.5547 144.816 52.816C145.168 53.0773 145.4 53.44 145.512 53.904H144.728C144.653 53.6373 144.506 53.4267 144.288 53.272C144.074 53.1173 143.808 53.04 143.488 53.04C143.072 53.04 142.736 53.184 142.48 53.472C142.224 53.7547 142.096 54.1573 142.096 54.68C142.096 55.208 142.224 55.616 142.48 55.904C142.736 56.192 143.072 56.336 143.488 56.336C143.808 56.336 144.074 56.2613 144.288 56.112C144.501 55.9627 144.648 55.7493 144.728 55.472H145.512C145.394 55.92 145.16 56.28 144.808 56.552C144.456 56.8187 144.016 56.952 143.488 56.952C143.072 56.952 142.701 56.8587 142.376 56.672C142.056 56.4853 141.805 56.2213 141.624 55.88C141.442 55.5387 141.352 55.1387 141.352 54.68ZM147.371 53.096V55.68C147.371 55.8933 147.417 56.0453 147.507 56.136C147.598 56.2213 147.755 56.264 147.979 56.264H148.515V56.88H147.859C147.454 56.88 147.15 56.7867 146.947 56.6C146.745 56.4133 146.643 56.1067 146.643 55.68V53.096H146.075V52.496H146.643V51.392H147.371V52.496H148.515V53.096H147.371ZM155.306 52.496L152.666 58.944H151.914L152.778 56.832L151.01 52.496H151.818L153.194 56.048L154.554 52.496H155.306ZM155.766 54.672C155.766 54.224 155.857 53.832 156.038 53.496C156.219 53.1547 156.467 52.8907 156.782 52.704C157.102 52.5173 157.457 52.424 157.846 52.424C158.23 52.424 158.563 52.5067 158.846 52.672C159.129 52.8373 159.339 53.0453 159.478 53.296V52.496H160.214V56.88H159.478V56.064C159.334 56.32 159.118 56.5333 158.83 56.704C158.547 56.8693 158.217 56.952 157.838 56.952C157.449 56.952 157.097 56.856 156.782 56.664C156.467 56.472 156.219 56.2027 156.038 55.856C155.857 55.5093 155.766 55.1147 155.766 54.672ZM159.478 54.68C159.478 54.3493 159.411 54.0613 159.278 53.816C159.145 53.5707 158.963 53.384 158.734 53.256C158.51 53.1227 158.262 53.056 157.99 53.056C157.718 53.056 157.47 53.12 157.246 53.248C157.022 53.376 156.843 53.5627 156.71 53.808C156.577 54.0533 156.51 54.3413 156.51 54.672C156.51 55.008 156.577 55.3013 156.71 55.552C156.843 55.7973 157.022 55.9867 157.246 56.12C157.47 56.248 157.718 56.312 157.99 56.312C158.262 56.312 158.51 56.248 158.734 56.12C158.963 55.9867 159.145 55.7973 159.278 55.552C159.411 55.3013 159.478 55.0107 159.478 54.68ZM163.58 52.416C164.113 52.416 164.545 52.5787 164.876 52.904C165.207 53.224 165.372 53.688 165.372 54.296V56.88H164.652V54.4C164.652 53.9627 164.543 53.6293 164.324 53.4C164.105 53.1653 163.807 53.048 163.428 53.048C163.044 53.048 162.737 53.168 162.508 53.408C162.284 53.648 162.172 53.9973 162.172 54.456V56.88H161.444V52.496H162.172V53.12C162.316 52.896 162.511 52.7227 162.756 52.6C163.007 52.4773 163.281 52.416 163.58 52.416ZM168.369 52.424C168.748 52.424 169.079 52.5067 169.361 52.672C169.649 52.8373 169.863 53.0453 170.001 53.296V52.496H170.737V56.976C170.737 57.376 170.652 57.7307 170.481 58.04C170.311 58.3547 170.065 58.6 169.745 58.776C169.431 58.952 169.063 59.04 168.641 59.04C168.065 59.04 167.585 58.904 167.201 58.632C166.817 58.36 166.591 57.9893 166.521 57.52H167.241C167.321 57.7867 167.487 58 167.737 58.16C167.988 58.3253 168.289 58.408 168.641 58.408C169.041 58.408 169.367 58.2827 169.617 58.032C169.873 57.7813 170.001 57.4293 170.001 56.976V56.056C169.857 56.312 169.644 56.5253 169.361 56.696C169.079 56.8667 168.748 56.952 168.369 56.952C167.98 56.952 167.625 56.856 167.305 56.664C166.991 56.472 166.743 56.2027 166.561 55.856C166.38 55.5093 166.289 55.1147 166.289 54.672C166.289 54.224 166.38 53.832 166.561 53.496C166.743 53.1547 166.991 52.8907 167.305 52.704C167.625 52.5173 167.98 52.424 168.369 52.424ZM170.001 54.68C170.001 54.3493 169.935 54.0613 169.801 53.816C169.668 53.5707 169.487 53.384 169.257 53.256C169.033 53.1227 168.785 53.056 168.513 53.056C168.241 53.056 167.993 53.12 167.769 53.248C167.545 53.376 167.367 53.5627 167.233 53.808C167.1 54.0533 167.033 54.3413 167.033 54.672C167.033 55.008 167.1 55.3013 167.233 55.552C167.367 55.7973 167.545 55.9867 167.769 56.12C167.993 56.248 168.241 56.312 168.513 56.312C168.785 56.312 169.033 56.248 169.257 56.12C169.487 55.9867 169.668 55.7973 169.801 55.552C169.935 55.3013 170.001 55.0107 170.001 54.68ZM174.828 50.96V56.88H174.1V50.96H174.828ZM175.797 54.672C175.797 54.224 175.888 53.832 176.069 53.496C176.25 53.1547 176.498 52.8907 176.813 52.704C177.133 52.5173 177.488 52.424 177.877 52.424C178.261 52.424 178.594 52.5067 178.877 52.672C179.16 52.8373 179.37 53.0453 179.509 53.296V52.496H180.245V56.88H179.509V56.064C179.365 56.32 179.149 56.5333 178.861 56.704C178.578 56.8693 178.248 56.952 177.869 56.952C177.48 56.952 177.128 56.856 176.813 56.664C176.498 56.472 176.25 56.2027 176.069 55.856C175.888 55.5093 175.797 55.1147 175.797 54.672ZM179.509 54.68C179.509 54.3493 179.442 54.0613 179.309 53.816C179.176 53.5707 178.994 53.384 178.765 53.256C178.541 53.1227 178.293 53.056 178.021 53.056C177.749 53.056 177.501 53.12 177.277 53.248C177.053 53.376 176.874 53.5627 176.741 53.808C176.608 54.0533 176.541 54.3413 176.541 54.672C176.541 55.008 176.608 55.3013 176.741 55.552C176.874 55.7973 177.053 55.9867 177.277 56.12C177.501 56.248 177.749 56.312 178.021 56.312C178.293 56.312 178.541 56.248 178.765 56.12C178.994 55.9867 179.176 55.7973 179.309 55.552C179.442 55.3013 179.509 55.0107 179.509 54.68ZM181.851 51.784C181.713 51.784 181.595 51.736 181.499 51.64C181.403 51.544 181.355 51.4267 181.355 51.288C181.355 51.1493 181.403 51.032 181.499 50.936C181.595 50.84 181.713 50.792 181.851 50.792C181.985 50.792 182.097 50.84 182.187 50.936C182.283 51.032 182.331 51.1493 182.331 51.288C182.331 51.4267 182.283 51.544 182.187 51.64C182.097 51.736 181.985 51.784 181.851 51.784ZM182.203 52.496V56.88H181.475V52.496H182.203ZM185.58 52.416C186.113 52.416 186.545 52.5787 186.876 52.904C187.207 53.224 187.372 53.688 187.372 54.296V56.88H186.652V54.4C186.652 53.9627 186.543 53.6293 186.324 53.4C186.105 53.1653 185.807 53.048 185.428 53.048C185.044 53.048 184.737 53.168 184.508 53.408C184.284 53.648 184.172 53.9973 184.172 54.456V56.88H183.444V52.496H184.172V53.12C184.316 52.896 184.511 52.7227 184.756 52.6C185.007 52.4773 185.281 52.416 185.58 52.416ZM190.697 52.416C191.231 52.416 191.663 52.5787 191.993 52.904C192.324 53.224 192.489 53.688 192.489 54.296V56.88H191.769V54.4C191.769 53.9627 191.66 53.6293 191.441 53.4C191.223 53.1653 190.924 53.048 190.545 53.048C190.161 53.048 189.855 53.168 189.625 53.408C189.401 53.648 189.289 53.9973 189.289 54.456V56.88H188.561V52.496H189.289V53.12C189.433 52.896 189.628 52.7227 189.873 52.6C190.124 52.4773 190.399 52.416 190.697 52.416ZM197.455 52.496L194.815 58.944H194.062L194.927 56.832L193.159 52.496H193.967L195.343 56.048L196.703 52.496H197.455ZM197.914 54.672C197.914 54.224 198.005 53.832 198.186 53.496C198.368 53.1547 198.616 52.8907 198.93 52.704C199.25 52.5173 199.605 52.424 199.994 52.424C200.378 52.424 200.712 52.5067 200.994 52.672C201.277 52.8373 201.488 53.0453 201.626 53.296V52.496H202.362V56.88H201.626V56.064C201.482 56.32 201.266 56.5333 200.978 56.704C200.696 56.8693 200.365 56.952 199.986 56.952C199.597 56.952 199.245 56.856 198.93 56.664C198.616 56.472 198.368 56.2027 198.186 55.856C198.005 55.5093 197.914 55.1147 197.914 54.672ZM201.626 54.68C201.626 54.3493 201.56 54.0613 201.426 53.816C201.293 53.5707 201.112 53.384 200.882 53.256C200.658 53.1227 200.41 53.056 200.138 53.056C199.866 53.056 199.618 53.12 199.394 53.248C199.17 53.376 198.992 53.5627 198.858 53.808C198.725 54.0533 198.658 54.3413 198.658 54.672C198.658 55.008 198.725 55.3013 198.858 55.552C198.992 55.7973 199.17 55.9867 199.394 56.12C199.618 56.248 199.866 56.312 200.138 56.312C200.41 56.312 200.658 56.248 200.882 56.12C201.112 55.9867 201.293 55.7973 201.426 55.552C201.56 55.3013 201.626 55.0107 201.626 54.68Z" fill="#0000FF"/>
<path d="M81 57.68H202.978V58.08H81V57.68Z" fill="#0000FF"/>
<path d="M36.4614 57.9999C38.5856 57.9999 40.3076 56.278 40.3076 54.1538C40.3076 52.0295 38.5856 50.3076 36.4614 50.3076C34.3372 50.3076 32.6152 52.0295 32.6152 54.1538C32.6152 56.278 34.3372 57.9999 36.4614 57.9999Z" stroke="black" stroke-width="1.6402" stroke-miterlimit="1.5" stroke-linecap="round" stroke-linejoin="round"/>
<path d="M55.692 57.9999C57.8163 57.9999 59.5382 56.278 59.5382 54.1538C59.5382 52.0295 57.8163 50.3076 55.692 50.3076C53.5678 50.3076 51.8459 52.0295 51.8459 54.1538C51.8459 56.278 53.5678 57.9999 55.692 57.9999Z" stroke="black" stroke-width="1.6402" stroke-miterlimit="1.5" stroke-linecap="round" stroke-linejoin="round"/>
<path d="M40.4039 54.1539H49.9231V34.1538C49.9231 33.5166 49.4066 33 48.7693 33H23" stroke="black" stroke-width="1.6402" stroke-linecap="round"/>
<path d="M31.9424 54.1538H28C27.3628 54.1538 26.8462 53.6373 26.8462 53V43.5769" stroke="black" stroke-width="1.6402" stroke-linecap="round"/>
<path d="M24.9232 38.7692H32.6155" stroke="black" stroke-width="1.6402" stroke-linecap="round" stroke-linejoin="round"/>
<path d="M49.9233 38.7692H60.7119C61.1679 38.7692 61.5812 39.0377 61.7664 39.4544L65.2085 47.1992C65.2741 47.3469 65.3079 47.5065 65.3079 47.6678V53C65.3079 53.6373 64.7914 54.1538 64.1541 54.1538H60.5002" stroke="black" stroke-width="1.6402" stroke-linecap="round"/>
<path d="M49.9233 54.1539H51.8464" stroke="black" stroke-width="1.6402" stroke-linecap="round"/>
<path d="M84.64 140.88L82.344 138.336V140.88H81.616V135.304H82.344V137.888L84.648 135.304H85.568L83.04 138.096L85.592 140.88H84.64ZM90.2931 136.496V140.88H89.5651V140.232C89.4264 140.456 89.2317 140.632 88.9811 140.76C88.7357 140.883 88.4637 140.944 88.1651 140.944C87.8237 140.944 87.5171 140.875 87.2451 140.736C86.9731 140.592 86.7571 140.379 86.5971 140.096C86.4424 139.813 86.3651 139.469 86.3651 139.064V136.496H87.0851V138.968C87.0851 139.4 87.1944 139.733 87.4131 139.968C87.6317 140.197 87.9304 140.312 88.3091 140.312C88.6984 140.312 89.0051 140.192 89.2291 139.952C89.4531 139.712 89.5651 139.363 89.5651 138.904V136.496H90.2931ZM93.6583 136.416C94.1916 136.416 94.6236 136.579 94.9543 136.904C95.2849 137.224 95.4503 137.688 95.4503 138.296V140.88H94.7303V138.4C94.7303 137.963 94.6209 137.629 94.4023 137.4C94.1836 137.165 93.8849 137.048 93.5063 137.048C93.1223 137.048 92.8156 137.168 92.5863 137.408C92.3623 137.648 92.2503 137.997 92.2503 138.456V140.88H91.5223V136.496H92.2503V137.12C92.3943 136.896 92.5889 136.723 92.8343 136.6C93.0849 136.477 93.3596 136.416 93.6583 136.416ZM97.0314 135.784C96.8928 135.784 96.7754 135.736 96.6794 135.64C96.5888 135.544 96.5434 135.427 96.5434 135.288C96.5434 135.149 96.5888 135.032 96.6794 134.936C96.7754 134.84 96.8928 134.792 97.0314 134.792C97.1701 134.792 97.2848 134.84 97.3754 134.936C97.4714 135.032 97.5194 135.149 97.5194 135.288C97.5194 135.427 97.4714 135.544 97.3754 135.64C97.2848 135.736 97.1701 135.784 97.0314 135.784ZM97.3914 141.832C97.3914 142.221 97.2928 142.507 97.0954 142.688C96.8981 142.869 96.6101 142.96 96.2314 142.96H95.8074V142.344H96.1114C96.3141 142.344 96.4554 142.304 96.5354 142.224C96.6208 142.144 96.6634 142.008 96.6634 141.816V136.496H97.3914V141.832ZM102.512 136.496V140.88H101.784V140.232C101.645 140.456 101.45 140.632 101.2 140.76C100.954 140.883 100.682 140.944 100.384 140.944C100.042 140.944 99.7358 140.875 99.4638 140.736C99.1918 140.592 98.9758 140.379 98.8158 140.096C98.6611 139.813 98.5838 139.469 98.5838 139.064V136.496H99.3038V138.968C99.3038 139.4 99.4131 139.733 99.6318 139.968C99.8505 140.197 100.149 140.312 100.528 140.312C100.917 140.312 101.224 140.192 101.448 139.952C101.672 139.712 101.784 139.363 101.784 138.904V136.496H102.512ZM105.877 136.416C106.41 136.416 106.842 136.579 107.173 136.904C107.504 137.224 107.669 137.688 107.669 138.296V140.88H106.949V138.4C106.949 137.963 106.84 137.629 106.621 137.4C106.402 137.165 106.104 137.048 105.725 137.048C105.341 137.048 105.034 137.168 104.805 137.408C104.581 137.648 104.469 137.997 104.469 138.456V140.88H103.741V136.496H104.469V137.12C104.613 136.896 104.808 136.723 105.053 136.6C105.304 136.477 105.578 136.416 105.877 136.416ZM110.666 136.424C111.045 136.424 111.376 136.507 111.658 136.672C111.946 136.837 112.16 137.045 112.298 137.296V136.496H113.034V140.976C113.034 141.376 112.949 141.731 112.778 142.04C112.608 142.355 112.362 142.6 112.042 142.776C111.728 142.952 111.36 143.04 110.938 143.04C110.362 143.04 109.882 142.904 109.498 142.632C109.114 142.36 108.888 141.989 108.818 141.52H109.538C109.618 141.787 109.784 142 110.034 142.16C110.285 142.325 110.586 142.408 110.938 142.408C111.338 142.408 111.664 142.283 111.914 142.032C112.17 141.781 112.298 141.429 112.298 140.976V140.056C112.154 140.312 111.941 140.525 111.658 140.696C111.376 140.867 111.045 140.952 110.666 140.952C110.277 140.952 109.922 140.856 109.602 140.664C109.288 140.472 109.04 140.203 108.858 139.856C108.677 139.509 108.586 139.115 108.586 138.672C108.586 138.224 108.677 137.832 108.858 137.496C109.04 137.155 109.288 136.891 109.602 136.704C109.922 136.517 110.277 136.424 110.666 136.424ZM112.298 138.68C112.298 138.349 112.232 138.061 112.098 137.816C111.965 137.571 111.784 137.384 111.554 137.256C111.33 137.123 111.082 137.056 110.81 137.056C110.538 137.056 110.29 137.12 110.066 137.248C109.842 137.376 109.664 137.563 109.53 137.808C109.397 138.053 109.33 138.341 109.33 138.672C109.33 139.008 109.397 139.301 109.53 139.552C109.664 139.797 109.842 139.987 110.066 140.12C110.29 140.248 110.538 140.312 110.81 140.312C111.082 140.312 111.33 140.248 111.554 140.12C111.784 139.987 111.965 139.797 112.098 139.552C112.232 139.301 112.298 139.011 112.298 138.68ZM114.64 135.784C114.502 135.784 114.384 135.736 114.288 135.64C114.192 135.544 114.144 135.427 114.144 135.288C114.144 135.149 114.192 135.032 114.288 134.936C114.384 134.84 114.502 134.792 114.64 134.792C114.774 134.792 114.886 134.84 114.976 134.936C115.072 135.032 115.12 135.149 115.12 135.288C115.12 135.427 115.072 135.544 114.976 135.64C114.886 135.736 114.774 135.784 114.64 135.784ZM114.992 136.496V140.88H114.264V136.496H114.992ZM122.094 136.936C122.094 137.4 121.934 137.787 121.614 138.096C121.299 138.4 120.817 138.552 120.166 138.552H119.094V140.88H118.366V135.304H120.166C120.795 135.304 121.273 135.456 121.598 135.76C121.929 136.064 122.094 136.456 122.094 136.936ZM120.166 137.952C120.571 137.952 120.87 137.864 121.062 137.688C121.254 137.512 121.35 137.261 121.35 136.936C121.35 136.248 120.955 135.904 120.166 135.904H119.094V137.952H120.166ZM123.727 137.208C123.855 136.957 124.036 136.763 124.271 136.624C124.511 136.485 124.801 136.416 125.143 136.416V137.168H124.951C124.135 137.168 123.727 137.611 123.727 138.496V140.88H122.999V136.496H123.727V137.208ZM127.895 140.952C127.485 140.952 127.111 140.859 126.775 140.672C126.445 140.485 126.183 140.221 125.991 139.88C125.805 139.533 125.711 139.133 125.711 138.68C125.711 138.232 125.807 137.837 125.999 137.496C126.197 137.149 126.463 136.885 126.799 136.704C127.135 136.517 127.511 136.424 127.927 136.424C128.343 136.424 128.719 136.517 129.055 136.704C129.391 136.885 129.655 137.147 129.847 137.488C130.045 137.829 130.143 138.227 130.143 138.68C130.143 139.133 130.042 139.533 129.839 139.88C129.642 140.221 129.373 140.485 129.031 140.672C128.69 140.859 128.311 140.952 127.895 140.952ZM127.895 140.312C128.157 140.312 128.402 140.251 128.631 140.128C128.861 140.005 129.045 139.821 129.183 139.576C129.327 139.331 129.399 139.032 129.399 138.68C129.399 138.328 129.33 138.029 129.191 137.784C129.053 137.539 128.871 137.357 128.647 137.24C128.423 137.117 128.181 137.056 127.919 137.056C127.653 137.056 127.407 137.117 127.183 137.24C126.965 137.357 126.789 137.539 126.655 137.784C126.522 138.029 126.455 138.328 126.455 138.68C126.455 139.037 126.519 139.339 126.647 139.584C126.781 139.829 126.957 140.013 127.175 140.136C127.394 140.253 127.634 140.312 127.895 140.312ZM130.828 138.672C130.828 138.224 130.919 137.832 131.1 137.496C131.282 137.155 131.53 136.891 131.844 136.704C132.164 136.517 132.522 136.424 132.916 136.424C133.258 136.424 133.575 136.504 133.868 136.664C134.162 136.819 134.386 137.024 134.54 137.28V134.96H135.276V140.88H134.54V140.056C134.396 140.317 134.183 140.533 133.9 140.704C133.618 140.869 133.287 140.952 132.908 140.952C132.519 140.952 132.164 140.856 131.844 140.664C131.53 140.472 131.282 140.203 131.1 139.856C130.919 139.509 130.828 139.115 130.828 138.672ZM134.54 138.68C134.54 138.349 134.474 138.061 134.34 137.816C134.207 137.571 134.026 137.384 133.796 137.256C133.572 137.123 133.324 137.056 133.052 137.056C132.78 137.056 132.532 137.12 132.308 137.248C132.084 137.376 131.906 137.563 131.772 137.808C131.639 138.053 131.572 138.341 131.572 138.672C131.572 139.008 131.639 139.301 131.772 139.552C131.906 139.797 132.084 139.987 132.308 140.12C132.532 140.248 132.78 140.312 133.052 140.312C133.324 140.312 133.572 140.248 133.796 140.12C134.026 139.987 134.207 139.797 134.34 139.552C134.474 139.301 134.54 139.011 134.54 138.68ZM140.395 136.496V140.88H139.667V140.232C139.528 140.456 139.333 140.632 139.083 140.76C138.837 140.883 138.565 140.944 138.267 140.944C137.925 140.944 137.619 140.875 137.347 140.736C137.075 140.592 136.859 140.379 136.699 140.096C136.544 139.813 136.467 139.469 136.467 139.064V136.496H137.187V138.968C137.187 139.4 137.296 139.733 137.515 139.968C137.733 140.197 138.032 140.312 138.411 140.312C138.8 140.312 139.107 140.192 139.331 139.952C139.555 139.712 139.667 139.363 139.667 138.904V136.496H140.395ZM141.352 138.68C141.352 138.227 141.442 137.832 141.624 137.496C141.805 137.155 142.056 136.891 142.376 136.704C142.701 136.517 143.072 136.424 143.488 136.424C144.026 136.424 144.469 136.555 144.816 136.816C145.168 137.077 145.4 137.44 145.512 137.904H144.728C144.653 137.637 144.506 137.427 144.288 137.272C144.074 137.117 143.808 137.04 143.488 137.04C143.072 137.04 142.736 137.184 142.48 137.472C142.224 137.755 142.096 138.157 142.096 138.68C142.096 139.208 142.224 139.616 142.48 139.904C142.736 140.192 143.072 140.336 143.488 140.336C143.808 140.336 144.074 140.261 144.288 140.112C144.501 139.963 144.648 139.749 144.728 139.472H145.512C145.394 139.92 145.16 140.28 144.808 140.552C144.456 140.819 144.016 140.952 143.488 140.952C143.072 140.952 142.701 140.859 142.376 140.672C142.056 140.485 141.805 140.221 141.624 139.88C141.442 139.539 141.352 139.139 141.352 138.68ZM147.371 137.096V139.68C147.371 139.893 147.417 140.045 147.507 140.136C147.598 140.221 147.755 140.264 147.979 140.264H148.515V140.88H147.859C147.454 140.88 147.15 140.787 146.947 140.6C146.745 140.413 146.643 140.107 146.643 139.68V137.096H146.075V136.496H146.643V135.392H147.371V136.496H148.515V137.096H147.371ZM155.306 136.496L152.666 142.944H151.914L152.778 140.832L151.01 136.496H151.818L153.194 140.048L154.554 136.496H155.306ZM155.766 138.672C155.766 138.224 155.857 137.832 156.038 137.496C156.219 137.155 156.467 136.891 156.782 136.704C157.102 136.517 157.457 136.424 157.846 136.424C158.23 136.424 158.563 136.507 158.846 136.672C159.129 136.837 159.339 137.045 159.478 137.296V136.496H160.214V140.88H159.478V140.064C159.334 140.32 159.118 140.533 158.83 140.704C158.547 140.869 158.217 140.952 157.838 140.952C157.449 140.952 157.097 140.856 156.782 140.664C156.467 140.472 156.219 140.203 156.038 139.856C155.857 139.509 155.766 139.115 155.766 138.672ZM159.478 138.68C159.478 138.349 159.411 138.061 159.278 137.816C159.145 137.571 158.963 137.384 158.734 137.256C158.51 137.123 158.262 137.056 157.99 137.056C157.718 137.056 157.47 137.12 157.246 137.248C157.022 137.376 156.843 137.563 156.71 137.808C156.577 138.053 156.51 138.341 156.51 138.672C156.51 139.008 156.577 139.301 156.71 139.552C156.843 139.797 157.022 139.987 157.246 140.12C157.47 140.248 157.718 140.312 157.99 140.312C158.262 140.312 158.51 140.248 158.734 140.12C158.963 139.987 159.145 139.797 159.278 139.552C159.411 139.301 159.478 139.011 159.478 138.68ZM163.58 136.416C164.113 136.416 164.545 136.579 164.876 136.904C165.207 137.224 165.372 137.688 165.372 138.296V140.88H164.652V138.4C164.652 137.963 164.543 137.629 164.324 137.4C164.105 137.165 163.807 137.048 163.428 137.048C163.044 137.048 162.737 137.168 162.508 137.408C162.284 137.648 162.172 137.997 162.172 138.456V140.88H161.444V136.496H162.172V137.12C162.316 136.896 162.511 136.723 162.756 136.6C163.007 136.477 163.281 136.416 163.58 136.416ZM168.369 136.424C168.748 136.424 169.079 136.507 169.361 136.672C169.649 136.837 169.863 137.045 170.001 137.296V136.496H170.737V140.976C170.737 141.376 170.652 141.731 170.481 142.04C170.311 142.355 170.065 142.6 169.745 142.776C169.431 142.952 169.063 143.04 168.641 143.04C168.065 143.04 167.585 142.904 167.201 142.632C166.817 142.36 166.591 141.989 166.521 141.52H167.241C167.321 141.787 167.487 142 167.737 142.16C167.988 142.325 168.289 142.408 168.641 142.408C169.041 142.408 169.367 142.283 169.617 142.032C169.873 141.781 170.001 141.429 170.001 140.976V140.056C169.857 140.312 169.644 140.525 169.361 140.696C169.079 140.867 168.748 140.952 168.369 140.952C167.98 140.952 167.625 140.856 167.305 140.664C166.991 140.472 166.743 140.203 166.561 139.856C166.38 139.509 166.289 139.115 166.289 138.672C166.289 138.224 166.38 137.832 166.561 137.496C166.743 137.155 166.991 136.891 167.305 136.704C167.625 136.517 167.98 136.424 168.369 136.424ZM170.001 138.68C170.001 138.349 169.935 138.061 169.801 137.816C169.668 137.571 169.487 137.384 169.257 137.256C169.033 137.123 168.785 137.056 168.513 137.056C168.241 137.056 167.993 137.12 167.769 137.248C167.545 137.376 167.367 137.563 167.233 137.808C167.1 138.053 167.033 138.341 167.033 138.672C167.033 139.008 167.1 139.301 167.233 139.552C167.367 139.797 167.545 139.987 167.769 140.12C167.993 140.248 168.241 140.312 168.513 140.312C168.785 140.312 169.033 140.248 169.257 140.12C169.487 139.987 169.668 139.797 169.801 139.552C169.935 139.301 170.001 139.011 170.001 138.68ZM174.828 134.96V140.88H174.1V134.96H174.828ZM175.797 138.672C175.797 138.224 175.888 137.832 176.069 137.496C176.25 137.155 176.498 136.891 176.813 136.704C177.133 136.517 177.488 136.424 177.877 136.424C178.261 136.424 178.594 136.507 178.877 136.672C179.16 136.837 179.37 137.045 179.509 137.296V136.496H180.245V140.88H179.509V140.064C179.365 140.32 179.149 140.533 178.861 140.704C178.578 140.869 178.248 140.952 177.869 140.952C177.48 140.952 177.128 140.856 176.813 140.664C176.498 140.472 176.25 140.203 176.069 139.856C175.888 139.509 175.797 139.115 175.797 138.672ZM179.509 138.68C179.509 138.349 179.442 138.061 179.309 137.816C179.176 137.571 178.994 137.384 178.765 137.256C178.541 137.123 178.293 137.056 178.021 137.056C177.749 137.056 177.501 137.12 177.277 137.248C177.053 137.376 176.874 137.563 176.741 137.808C176.608 138.053 176.541 138.341 176.541 138.672C176.541 139.008 176.608 139.301 176.741 139.552C176.874 139.797 177.053 139.987 177.277 140.12C177.501 140.248 177.749 140.312 178.021 140.312C178.293 140.312 178.541 140.248 178.765 140.12C178.994 139.987 179.176 139.797 179.309 139.552C179.442 139.301 179.509 139.011 179.509 138.68ZM181.851 135.784C181.713 135.784 181.595 135.736 181.499 135.64C181.403 135.544 181.355 135.427 181.355 135.288C181.355 135.149 181.403 135.032 181.499 134.936C181.595 134.84 181.713 134.792 181.851 134.792C181.985 134.792 182.097 134.84 182.187 134.936C182.283 135.032 182.331 135.149 182.331 135.288C182.331 135.427 182.283 135.544 182.187 135.64C182.097 135.736 181.985 135.784 181.851 135.784ZM182.203 136.496V140.88H181.475V136.496H182.203ZM185.58 136.416C186.113 136.416 186.545 136.579 186.876 136.904C187.207 137.224 187.372 137.688 187.372 138.296V140.88H186.652V138.4C186.652 137.963 186.543 137.629 186.324 137.4C186.105 137.165 185.807 137.048 185.428 137.048C185.044 137.048 184.737 137.168 184.508 137.408C184.284 137.648 184.172 137.997 184.172 138.456V140.88H183.444V136.496H184.172V137.12C184.316 136.896 184.511 136.723 184.756 136.6C185.007 136.477 185.281 136.416 185.58 136.416ZM190.697 136.416C191.231 136.416 191.663 136.579 191.993 136.904C192.324 137.224 192.489 137.688 192.489 138.296V140.88H191.769V138.4C191.769 137.963 191.66 137.629 191.441 137.4C191.223 137.165 190.924 137.048 190.545 137.048C190.161 137.048 189.855 137.168 189.625 137.408C189.401 137.648 189.289 137.997 189.289 138.456V140.88H188.561V136.496H189.289V137.12C189.433 136.896 189.628 136.723 189.873 136.6C190.124 136.477 190.399 136.416 190.697 136.416ZM197.455 136.496L194.815 142.944H194.062L194.927 140.832L193.159 136.496H193.967L195.343 140.048L196.703 136.496H197.455ZM197.914 138.672C197.914 138.224 198.005 137.832 198.186 137.496C198.368 137.155 198.616 136.891 198.93 136.704C199.25 136.517 199.605 136.424 199.994 136.424C200.378 136.424 200.712 136.507 200.994 136.672C201.277 136.837 201.488 137.045 201.626 137.296V136.496H202.362V140.88H201.626V140.064C201.482 140.32 201.266 140.533 200.978 140.704C200.696 140.869 200.365 140.952 199.986 140.952C199.597 140.952 199.245 140.856 198.93 140.664C198.616 140.472 198.368 140.203 198.186 139.856C198.005 139.509 197.914 139.115 197.914 138.672ZM201.626 138.68C201.626 138.349 201.56 138.061 201.426 137.816C201.293 137.571 201.112 137.384 200.882 137.256C200.658 137.123 200.41 137.056 200.138 137.056C199.866 137.056 199.618 137.12 199.394 137.248C199.17 137.376 198.992 137.563 198.858 137.808C198.725 138.053 198.658 138.341 198.658 138.672C198.658 139.008 198.725 139.301 198.858 139.552C198.992 139.797 199.17 139.987 199.394 140.12C199.618 140.248 199.866 140.312 200.138 140.312C200.41 140.312 200.658 140.248 200.882 140.12C201.112 139.987 201.293 139.797 201.426 139.552C201.56 139.301 201.626 139.011 201.626 138.68Z" fill="#0000FF"/>
<path d="M81 141.68H202.978V142.08H81V141.68Z" fill="#0000FF"/>
<path d="M94.28 115.832V127H92.04V119.736L89.048 127H87.352L84.344 119.736V127H82.104V115.832H84.648L88.2 124.136L91.752 115.832H94.28ZM104.735 122.376C104.735 122.696 104.713 122.984 104.671 123.24H98.1906C98.244 123.88 98.468 124.381 98.8626 124.744C99.2573 125.107 99.7426 125.288 100.319 125.288C101.151 125.288 101.743 124.931 102.095 124.216H104.511C104.255 125.069 103.764 125.773 103.039 126.328C102.313 126.872 101.423 127.144 100.367 127.144C99.5133 127.144 98.7453 126.957 98.0626 126.584C97.3906 126.2 96.8626 125.661 96.4786 124.968C96.1053 124.275 95.9186 123.475 95.9186 122.568C95.9186 121.651 96.1053 120.845 96.4786 120.152C96.852 119.459 97.3746 118.925 98.0466 118.552C98.7186 118.179 99.492 117.992 100.367 117.992C101.209 117.992 101.961 118.173 102.623 118.536C103.295 118.899 103.812 119.416 104.175 120.088C104.548 120.749 104.735 121.512 104.735 122.376ZM102.415 121.736C102.404 121.16 102.196 120.701 101.791 120.36C101.385 120.008 100.889 119.832 100.303 119.832C99.748 119.832 99.2786 120.003 98.8946 120.344C98.5213 120.675 98.292 121.139 98.2066 121.736H102.415ZM111.282 118.008C112.338 118.008 113.191 118.344 113.842 119.016C114.492 119.677 114.818 120.605 114.818 121.8V127H112.578V122.104C112.578 121.4 112.402 120.861 112.05 120.488C111.698 120.104 111.218 119.912 110.61 119.912C109.991 119.912 109.5 120.104 109.138 120.488C108.786 120.861 108.61 121.4 108.61 122.104V127H106.37V118.136H108.61V119.24C108.908 118.856 109.287 118.557 109.746 118.344C110.215 118.12 110.727 118.008 111.282 118.008ZM116.372 122.536C116.372 121.64 116.548 120.845 116.9 120.152C117.262 119.459 117.753 118.925 118.372 118.552C118.99 118.179 119.678 117.992 120.436 117.992C121.012 117.992 121.561 118.12 122.084 118.376C122.606 118.621 123.022 118.952 123.332 119.368V115.16H125.604V127H123.332V125.688C123.054 126.125 122.665 126.477 122.164 126.744C121.662 127.011 121.081 127.144 120.42 127.144C119.673 127.144 118.99 126.952 118.372 126.568C117.753 126.184 117.262 125.645 116.9 124.952C116.548 124.248 116.372 123.443 116.372 122.536ZM123.348 122.568C123.348 122.024 123.241 121.56 123.028 121.176C122.814 120.781 122.526 120.483 122.164 120.28C121.801 120.067 121.412 119.96 120.996 119.96C120.58 119.96 120.196 120.061 119.844 120.264C119.492 120.467 119.204 120.765 118.98 121.16C118.766 121.544 118.66 122.003 118.66 122.536C118.66 123.069 118.766 123.539 118.98 123.944C119.204 124.339 119.492 124.643 119.844 124.856C120.206 125.069 120.59 125.176 120.996 125.176C121.412 125.176 121.801 125.075 122.164 124.872C122.526 124.659 122.814 124.36 123.028 123.976C123.241 123.581 123.348 123.112 123.348 122.568ZM127.215 122.536C127.215 121.64 127.391 120.845 127.743 120.152C128.106 119.459 128.592 118.925 129.2 118.552C129.818 118.179 130.506 117.992 131.264 117.992C131.925 117.992 132.501 118.125 132.992 118.392C133.493 118.659 133.893 118.995 134.192 119.4V118.136H136.448V127H134.192V125.704C133.904 126.12 133.504 126.467 132.992 126.744C132.49 127.011 131.909 127.144 131.248 127.144C130.501 127.144 129.818 126.952 129.2 126.568C128.592 126.184 128.106 125.645 127.743 124.952C127.391 124.248 127.215 123.443 127.215 122.536ZM134.192 122.568C134.192 122.024 134.085 121.56 133.872 121.176C133.658 120.781 133.37 120.483 133.008 120.28C132.645 120.067 132.256 119.96 131.84 119.96C131.424 119.96 131.04 120.061 130.688 120.264C130.336 120.467 130.048 120.765 129.824 121.16C129.61 121.544 129.504 122.003 129.504 122.536C129.504 123.069 129.61 123.539 129.824 123.944C130.048 124.339 130.336 124.643 130.688 124.856C131.05 125.069 131.434 125.176 131.84 125.176C132.256 125.176 132.645 125.075 133.008 124.872C133.37 124.659 133.658 124.36 133.872 123.976C134.085 123.581 134.192 123.112 134.192 122.568ZM140.875 119.416C141.163 119.011 141.558 118.675 142.059 118.408C142.571 118.131 143.153 117.992 143.803 117.992C144.561 117.992 145.243 118.179 145.851 118.552C146.47 118.925 146.955 119.459 147.307 120.152C147.67 120.835 147.851 121.629 147.851 122.536C147.851 123.443 147.67 124.248 147.307 124.952C146.955 125.645 146.47 126.184 145.851 126.568C145.243 126.952 144.561 127.144 143.803 127.144C143.153 127.144 142.577 127.011 142.075 126.744C141.585 126.477 141.185 126.141 140.875 125.736V131.224H138.635V118.136H140.875V119.416ZM145.563 122.536C145.563 122.003 145.451 121.544 145.227 121.16C145.014 120.765 144.726 120.467 144.363 120.264C144.011 120.061 143.627 119.96 143.211 119.96C142.806 119.96 142.422 120.067 142.059 120.28C141.707 120.483 141.419 120.781 141.195 121.176C140.982 121.571 140.875 122.035 140.875 122.568C140.875 123.101 140.982 123.565 141.195 123.96C141.419 124.355 141.707 124.659 142.059 124.872C142.422 125.075 142.806 125.176 143.211 125.176C143.627 125.176 144.011 125.069 144.363 124.856C144.726 124.643 145.014 124.339 145.227 123.944C145.451 123.549 145.563 123.08 145.563 122.536ZM148.903 122.536C148.903 121.64 149.079 120.845 149.431 120.152C149.794 119.459 150.279 118.925 150.887 118.552C151.506 118.179 152.194 117.992 152.951 117.992C153.612 117.992 154.188 118.125 154.679 118.392C155.18 118.659 155.58 118.995 155.879 119.4V118.136H158.135V127H155.879V125.704C155.591 126.12 155.191 126.467 154.679 126.744C154.178 127.011 153.596 127.144 152.935 127.144C152.188 127.144 151.506 126.952 150.887 126.568C150.279 126.184 149.794 125.645 149.431 124.952C149.079 124.248 148.903 123.443 148.903 122.536ZM155.879 122.568C155.879 122.024 155.772 121.56 155.559 121.176C155.346 120.781 155.058 120.483 154.695 120.28C154.332 120.067 153.943 119.96 153.527 119.96C153.111 119.96 152.727 120.061 152.375 120.264C152.023 120.467 151.735 120.765 151.511 121.16C151.298 121.544 151.191 122.003 151.191 122.536C151.191 123.069 151.298 123.539 151.511 123.944C151.735 124.339 152.023 124.643 152.375 124.856C152.738 125.069 153.122 125.176 153.527 125.176C153.943 125.176 154.332 125.075 154.695 124.872C155.058 124.659 155.346 124.36 155.559 123.976C155.772 123.581 155.879 123.112 155.879 122.568ZM162.931 119.976V124.264C162.931 124.563 163 124.781 163.139 124.92C163.288 125.048 163.533 125.112 163.875 125.112H164.915V127H163.507C161.619 127 160.675 126.083 160.675 124.248V119.976H159.619V118.136H160.675V115.944H162.931V118.136H164.915V119.976H162.931ZM171.774 127L168.766 123.224V127H166.526V115.16H168.766V121.896L171.742 118.136H174.654L170.75 122.584L174.686 127H171.774ZM175.294 122.536C175.294 121.64 175.47 120.845 175.822 120.152C176.184 119.459 176.67 118.925 177.278 118.552C177.896 118.179 178.584 117.992 179.342 117.992C180.003 117.992 180.579 118.125 181.07 118.392C181.571 118.659 181.971 118.995 182.27 119.4V118.136H184.526V127H182.27V125.704C181.982 126.12 181.582 126.467 181.07 126.744C180.568 127.011 179.987 127.144 179.326 127.144C178.579 127.144 177.896 126.952 177.278 126.568C176.67 126.184 176.184 125.645 175.822 124.952C175.47 124.248 175.294 123.443 175.294 122.536ZM182.27 122.568C182.27 122.024 182.163 121.56 181.95 121.176C181.736 120.781 181.448 120.483 181.086 120.28C180.723 120.067 180.334 119.96 179.918 119.96C179.502 119.96 179.118 120.061 178.766 120.264C178.414 120.467 178.126 120.765 177.902 121.16C177.688 121.544 177.582 122.003 177.582 122.536C177.582 123.069 177.688 123.539 177.902 123.944C178.126 124.339 178.414 124.643 178.766 124.856C179.128 125.069 179.512 125.176 179.918 125.176C180.334 125.176 180.723 125.075 181.086 124.872C181.448 124.659 181.736 124.36 181.95 123.976C182.163 123.581 182.27 123.112 182.27 122.568ZM191.625 118.008C192.681 118.008 193.535 118.344 194.185 119.016C194.836 119.677 195.161 120.605 195.161 121.8V127H192.921V122.104C192.921 121.4 192.745 120.861 192.393 120.488C192.041 120.104 191.561 119.912 190.953 119.912C190.335 119.912 189.844 120.104 189.481 120.488C189.129 120.861 188.953 121.4 188.953 122.104V127H186.713V118.136H188.953V119.24C189.252 118.856 189.631 118.557 190.089 118.344C190.559 118.12 191.071 118.008 191.625 118.008ZM200.56 121.4C200.56 120.301 200.805 119.32 201.296 118.456C201.797 117.581 202.475 116.904 203.328 116.424C204.192 115.933 205.157 115.688 206.224 115.688C207.472 115.688 208.565 116.008 209.504 116.648C210.443 117.288 211.099 118.173 211.472 119.304H208.896C208.64 118.771 208.277 118.371 207.808 118.104C207.349 117.837 206.816 117.704 206.208 117.704C205.557 117.704 204.976 117.859 204.464 118.168C203.963 118.467 203.568 118.893 203.28 119.448C203.003 120.003 202.864 120.653 202.864 121.4C202.864 122.136 203.003 122.787 203.28 123.352C203.568 123.907 203.963 124.339 204.464 124.648C204.976 124.947 205.557 125.096 206.208 125.096C206.816 125.096 207.349 124.963 207.808 124.696C208.277 124.419 208.64 124.013 208.896 123.48H211.472C211.099 124.621 210.443 125.512 209.504 126.152C208.576 126.781 207.483 127.096 206.224 127.096C205.157 127.096 204.192 126.856 203.328 126.376C202.475 125.885 201.797 125.208 201.296 124.344C200.805 123.48 200.56 122.499 200.56 121.4ZM212.809 122.536C212.809 121.64 212.985 120.845 213.337 120.152C213.7 119.459 214.185 118.925 214.793 118.552C215.412 118.179 216.1 117.992 216.857 117.992C217.519 117.992 218.095 118.125 218.585 118.392C219.087 118.659 219.487 118.995 219.785 119.4V118.136H222.041V127H219.785V125.704C219.497 126.12 219.097 126.467 218.585 126.744C218.084 127.011 217.503 127.144 216.841 127.144C216.095 127.144 215.412 126.952 214.793 126.568C214.185 126.184 213.7 125.645 213.337 124.952C212.985 124.248 212.809 123.443 212.809 122.536ZM219.785 122.568C219.785 122.024 219.679 121.56 219.465 121.176C219.252 120.781 218.964 120.483 218.601 120.28C218.239 120.067 217.849 119.96 217.433 119.96C217.017 119.96 216.633 120.061 216.281 120.264C215.929 120.467 215.641 120.765 215.417 121.16C215.204 121.544 215.097 122.003 215.097 122.536C215.097 123.069 215.204 123.539 215.417 123.944C215.641 124.339 215.929 124.643 216.281 124.856C216.644 125.069 217.028 125.176 217.433 125.176C217.849 125.176 218.239 125.075 218.601 124.872C218.964 124.659 219.252 124.36 219.465 123.976C219.679 123.581 219.785 123.112 219.785 122.568ZM227.621 127.144C226.896 127.144 226.245 127.016 225.669 126.76C225.093 126.493 224.634 126.136 224.293 125.688C223.962 125.24 223.781 124.744 223.749 124.2H226.005C226.048 124.541 226.213 124.824 226.501 125.048C226.8 125.272 227.168 125.384 227.605 125.384C228.032 125.384 228.362 125.299 228.597 125.128C228.842 124.957 228.965 124.739 228.965 124.472C228.965 124.184 228.816 123.971 228.517 123.832C228.229 123.683 227.765 123.523 227.125 123.352C226.464 123.192 225.92 123.027 225.493 122.856C225.077 122.685 224.714 122.424 224.405 122.072C224.106 121.72 223.957 121.245 223.957 120.648C223.957 120.157 224.096 119.709 224.373 119.304C224.661 118.899 225.066 118.579 225.589 118.344C226.122 118.109 226.746 117.992 227.461 117.992C228.517 117.992 229.36 118.259 229.989 118.792C230.618 119.315 230.965 120.024 231.029 120.92H228.885C228.853 120.568 228.704 120.291 228.437 120.088C228.181 119.875 227.834 119.768 227.397 119.768C226.992 119.768 226.677 119.843 226.453 119.992C226.24 120.141 226.133 120.349 226.133 120.616C226.133 120.915 226.282 121.144 226.581 121.304C226.88 121.453 227.344 121.608 227.973 121.768C228.613 121.928 229.141 122.093 229.557 122.264C229.973 122.435 230.33 122.701 230.629 123.064C230.938 123.416 231.098 123.885 231.109 124.472C231.109 124.984 230.965 125.443 230.677 125.848C230.4 126.253 229.994 126.573 229.461 126.808C228.938 127.032 228.325 127.144 227.621 127.144ZM237.94 118.008C238.612 118.008 239.209 118.157 239.732 118.456C240.254 118.744 240.66 119.176 240.948 119.752C241.246 120.317 241.396 121 241.396 121.8V127H239.156V122.104C239.156 121.4 238.98 120.861 238.628 120.488C238.276 120.104 237.796 119.912 237.188 119.912C236.569 119.912 236.078 120.104 235.716 120.488C235.364 120.861 235.188 121.4 235.188 122.104V127H232.948V115.16H235.188V119.24C235.476 118.856 235.86 118.557 236.34 118.344C236.82 118.12 237.353 118.008 237.94 118.008ZM245.766 119.432C246.054 119.005 246.449 118.659 246.95 118.392C247.462 118.125 248.043 117.992 248.694 117.992C249.451 117.992 250.134 118.179 250.742 118.552C251.361 118.925 251.846 119.459 252.198 120.152C252.561 120.835 252.742 121.629 252.742 122.536C252.742 123.443 252.561 124.248 252.198 124.952C251.846 125.645 251.361 126.184 250.742 126.568C250.134 126.952 249.451 127.144 248.694 127.144C248.033 127.144 247.451 127.016 246.95 126.76C246.459 126.493 246.065 126.152 245.766 125.736V127H243.526V115.16H245.766V119.432ZM250.454 122.536C250.454 122.003 250.342 121.544 250.118 121.16C249.905 120.765 249.617 120.467 249.254 120.264C248.902 120.061 248.518 119.96 248.102 119.96C247.697 119.96 247.313 120.067 246.95 120.28C246.598 120.483 246.31 120.781 246.086 121.176C245.873 121.571 245.766 122.035 245.766 122.568C245.766 123.101 245.873 123.565 246.086 123.96C246.31 124.355 246.598 124.659 246.95 124.872C247.313 125.075 247.697 125.176 248.102 125.176C248.518 125.176 248.902 125.069 249.254 124.856C249.617 124.643 249.905 124.339 250.118 123.944C250.342 123.549 250.454 123.08 250.454 122.536ZM253.794 122.536C253.794 121.64 253.97 120.845 254.322 120.152C254.684 119.459 255.17 118.925 255.778 118.552C256.396 118.179 257.084 117.992 257.842 117.992C258.503 117.992 259.079 118.125 259.57 118.392C260.071 118.659 260.471 118.995 260.77 119.4V118.136H263.026V127H260.77V125.704C260.482 126.12 260.082 126.467 259.57 126.744C259.068 127.011 258.487 127.144 257.826 127.144C257.079 127.144 256.396 126.952 255.778 126.568C255.17 126.184 254.684 125.645 254.322 124.952C253.97 124.248 253.794 123.443 253.794 122.536ZM260.77 122.568C260.77 122.024 260.663 121.56 260.45 121.176C260.236 120.781 259.948 120.483 259.586 120.28C259.223 120.067 258.834 119.96 258.418 119.96C258.002 119.96 257.618 120.061 257.266 120.264C256.914 120.467 256.626 120.765 256.402 121.16C256.188 121.544 256.082 122.003 256.082 122.536C256.082 123.069 256.188 123.539 256.402 123.944C256.626 124.339 256.914 124.643 257.266 124.856C257.628 125.069 258.012 125.176 258.418 125.176C258.834 125.176 259.223 125.075 259.586 124.872C259.948 124.659 260.236 124.36 260.45 123.976C260.663 123.581 260.77 123.112 260.77 122.568ZM264.637 122.568C264.637 121.651 264.824 120.851 265.197 120.168C265.571 119.475 266.088 118.941 266.749 118.568C267.411 118.184 268.168 117.992 269.021 117.992C270.12 117.992 271.027 118.269 271.741 118.824C272.467 119.368 272.952 120.136 273.197 121.128H270.781C270.653 120.744 270.435 120.445 270.125 120.232C269.827 120.008 269.453 119.896 269.005 119.896C268.365 119.896 267.859 120.131 267.485 120.6C267.112 121.059 266.925 121.715 266.925 122.568C266.925 123.411 267.112 124.067 267.485 124.536C267.859 124.995 268.365 125.224 269.005 125.224C269.912 125.224 270.504 124.819 270.781 124.008H273.197C272.952 124.968 272.467 125.731 271.741 126.296C271.016 126.861 270.109 127.144 269.021 127.144C268.168 127.144 267.411 126.957 266.749 126.584C266.088 126.2 265.571 125.667 265.197 124.984C264.824 124.291 264.637 123.485 264.637 122.568ZM280.086 127L277.078 123.224V127H274.838V115.16H277.078V121.896L280.054 118.136H282.966L279.062 122.584L282.998 127H280.086Z" fill="black"/>
<path d="M55.4126 135.43V125.468C55.4122 125.032 55.2969 124.603 55.0784 124.225C54.8598 123.847 54.5457 123.533 54.1675 123.314L45.4515 118.334C45.0729 118.115 44.6435 118 44.2063 118C43.7692 118 43.3397 118.115 42.9612 118.334L34.2451 123.314C33.8669 123.533 33.5528 123.847 33.3343 124.225C33.1157 124.603 33.0004 125.032 33 125.468V135.43C33.0004 135.866 33.1157 136.295 33.3343 136.673C33.5528 137.051 33.8669 137.365 34.2451 137.584L42.9612 142.564C43.3397 142.783 43.7692 142.898 44.2063 142.898C44.6435 142.898 45.0729 142.783 45.4515 142.564L54.1675 137.584C54.5457 137.365 54.8598 137.051 55.0784 136.673C55.2969 136.295 55.4122 135.866 55.4126 135.43Z" stroke="black" stroke-width="3.4419" stroke-linecap="round" stroke-linejoin="round"/>
<path d="M33.3362 124.173L44.2063 130.461L55.0764 124.173" stroke="black" stroke-width="3.4419" stroke-linecap="round" stroke-linejoin="round"/>
<path d="M44.2063 143V130.449" stroke="black" stroke-width="3.4419" stroke-linecap="round" stroke-linejoin="round"/>
<defs>
<filter id="filter0_b_236_591" x="-4" y="-4" width="408" height="182" filterUnits="userSpaceOnUse" color-interpolation-filters="sRGB">
<feFlood flood-opacity="0" result="BackgroundImageFix"/>
<feGaussianBlur in="BackgroundImageFix" stdDeviation="2"/>
<feComposite in2="SourceAlpha" operator="in" result="effect1_backgroundBlur_236_591"/>
<feBlend mode="normal" in="SourceGraphic" in2="effect1_backgroundBlur_236_591" result="shape"/>
</filter>
</defs>
</svg>
