<svg width="46" height="51" viewBox="0 0 46 51" fill="none" xmlns="http://www.w3.org/2000/svg">
<path d="M38.1235 26.9222C38.0996 22.8255 40.0842 19.7334 44.1012 17.4562C41.8536 14.4534 38.4583 12.8013 33.975 12.4776C29.7309 12.1651 25.0922 14.7883 23.3945 14.7883C21.6012 14.7883 17.4886 12.5893 14.2606 12.5893C7.58953 12.6897 0.5 17.5567 0.5 27.458C0.5 30.3827 1.07386 33.4041 2.22157 36.5222C3.75186 40.6189 9.27524 50.6654 15.0377 50.4979C18.0505 50.431 20.1785 48.4998 24.0999 48.4998C27.9017 48.4998 29.8743 50.4979 33.2338 50.4979C39.0441 50.4198 44.0414 41.2887 45.5 37.1808C37.7051 33.7538 38.1235 27.1343 38.1235 26.9222ZM31.3568 8.59299C34.6206 4.97626 34.3217 1.68325 34.2261 0.5C31.3448 0.656278 28.0093 2.33069 26.1084 4.3958C24.0162 6.60602 22.7848 9.34089 23.0478 12.4218C26.1682 12.6451 29.0136 11.1493 31.3568 8.59299Z" fill="#F5F5F5"/>
</svg>
