<svg width="25" height="24" viewBox="0 0 25 24" fill="none" xmlns="http://www.w3.org/2000/svg">
<path d="M23.85 5.75C23.634 5.37578 23.3247 5.06392 22.9523 4.84484C22.5799 4.62577 22.157 4.50696 21.725 4.5H5.725L5 1.675C4.92675 1.4023 4.76333 1.16243 4.53635 0.994466C4.30937 0.8265 4.0322 0.740334 3.75 0.750001H1.25C0.918479 0.750001 0.600537 0.881697 0.366116 1.11612C0.131696 1.35054 0 1.66848 0 2C0 2.33152 0.131696 2.64946 0.366116 2.88388C0.600537 3.1183 0.918479 3.25 1.25 3.25H2.8L6.25 16.075C6.32325 16.3477 6.48667 16.5876 6.71365 16.7555C6.94063 16.9235 7.2178 17.0097 7.5 17H18.75C18.9808 16.9993 19.207 16.9347 19.4033 16.8133C19.5997 16.692 19.7586 16.5186 19.8625 16.3125L23.9625 8.1125C24.1402 7.74002 24.2229 7.32934 24.2033 6.91711C24.1837 6.50487 24.0623 6.10391 23.85 5.75ZM17.975 14.5H8.45L6.4125 7H21.725L17.975 14.5Z" fill="black"/>
<path d="M6.875 23.25C7.91053 23.25 8.75 22.4105 8.75 21.375C8.75 20.3395 7.91053 19.5 6.875 19.5C5.83947 19.5 5 20.3395 5 21.375C5 22.4105 5.83947 23.25 6.875 23.25Z" fill="black"/>
<path d="M19.375 23.25C20.4105 23.25 21.25 22.4105 21.25 21.375C21.25 20.3395 20.4105 19.5 19.375 19.5C18.3395 19.5 17.5 20.3395 17.5 21.375C17.5 22.4105 18.3395 23.25 19.375 23.25Z" fill="black"/>
</svg>
