<svg width="15" height="16" viewBox="0 0 15 16" fill="none" xmlns="http://www.w3.org/2000/svg">
<path d="M7.5 2C6.61594 2 5.7681 2.31607 5.14298 2.87868C4.51786 3.44129 4.16667 4.20435 4.16667 5C4.16667 5.79565 4.51786 6.55871 5.14298 7.12132C5.7681 7.68393 6.61594 8 7.5 8C8.38406 8 9.2319 7.68393 9.85702 7.12132C10.4821 6.55871 10.8333 5.79565 10.8333 5C10.8333 4.20435 10.4821 3.44129 9.85702 2.87868C9.2319 2.31607 8.38406 2 7.5 2ZM2.5 5C2.5 3.80653 3.02678 2.66193 3.96447 1.81802C4.90215 0.974106 6.17392 0.5 7.5 0.5C8.82608 0.5 10.0979 0.974106 11.0355 1.81802C11.9732 2.66193 12.5 3.80653 12.5 5C12.5 6.19347 11.9732 7.33807 11.0355 8.18198C10.0979 9.02589 8.82608 9.5 7.5 9.5C6.17392 9.5 4.90215 9.02589 3.96447 8.18198C3.02678 7.33807 2.5 6.19347 2.5 5ZM4.16667 12.5C3.50363 12.5 2.86774 12.7371 2.3989 13.159C1.93006 13.581 1.66667 14.1533 1.66667 14.75C1.66667 14.9489 1.57887 15.1397 1.42259 15.2803C1.26631 15.421 1.05435 15.5 0.833333 15.5C0.61232 15.5 0.400358 15.421 0.244078 15.2803C0.0877973 15.1397 0 14.9489 0 14.75C0 13.7554 0.438987 12.8016 1.22039 12.0983C2.00179 11.3951 3.0616 11 4.16667 11H10.8333C11.9384 11 12.9982 11.3951 13.7796 12.0983C14.561 12.8016 15 13.7554 15 14.75C15 14.9489 14.9122 15.1397 14.7559 15.2803C14.5996 15.421 14.3877 15.5 14.1667 15.5C13.9457 15.5 13.7337 15.421 13.5774 15.2803C13.4211 15.1397 13.3333 14.9489 13.3333 14.75C13.3333 14.1533 13.0699 13.581 12.6011 13.159C12.1323 12.7371 11.4964 12.5 10.8333 12.5H4.16667Z" fill="#0D0D0D"/>
</svg>
