<svg width="55" height="59" viewBox="0 0 55 59" fill="none" xmlns="http://www.w3.org/2000/svg">
<path d="M40.4873 38.4911C47.4152 34.6871 52.6675 31.7884 53.1202 31.5632C54.5684 30.7929 56.0639 28.7547 53.1202 27.1713C52.1697 26.6736 47.0526 23.865 40.4873 20.2434L31.386 29.4348L40.4873 38.4911Z" fill="#FFD900"/>
<path d="M31.3859 29.4348L2.40625 58.642C3.08643 58.7321 3.85445 58.5519 4.75985 58.0541C6.66075 57.0136 26.8116 46.0091 40.4873 38.4934L31.3859 29.4348Z" fill="#F43249"/>
<path d="M31.3858 29.4349L40.4872 20.2886C40.4872 20.2886 6.79801 1.90345 4.75973 0.817869C3.99171 0.362915 3.13135 0.22778 2.36108 0.362915L31.3858 29.4349Z" fill="#00EE76"/>
<path d="M31.3859 29.4348L2.36116 0.362793C1.18324 0.635315 0.187744 1.67585 0.187744 3.80423V55.2006C0.187744 57.1488 0.958013 58.5519 2.40621 58.687L31.3859 29.4348Z" fill="#00D3FF"/>
</svg>
